<?xml version="1.0" encoding="utf-8"?>
<svg version="1.1" xmlns="http://www.w3.org/2000/svg" xmlns:xlink="http://www.w3.org/1999/xlink" x="0px" y="0px" viewBox="0 0 200 200" enable-background="new 0 0 200 200" xml:space="preserve">
<path fill="#6fb0e4" d="m94.166 48.242c-0.25417-0.0098-0.45515 0.0033-0.59376 0.03516-0.11521 0.02654-0.29857 0.08155-0.4082 0.12305-0.10962 0.04119-0.31508 0.15037-0.45508 0.24219-0.14 0.09216-0.33638 0.25359-0.43554 0.35938-0.09914 0.10578-0.23772 0.2835-0.30859 0.39453-0.07125 0.11102-0.17496 0.32665-0.23046 0.47852-0.05584 0.15256-0.11773 0.42065-0.13868 0.59766l-0.03709 0.32031 0.4043 3.5879c0.34808 3.088 0.41663 3.6256 0.49414 3.8574 0.04956 0.14837 0.13011 0.34115 0.17969 0.42773 0.04956 0.08623 0.16745 0.25399 0.26172 0.37304 0.09426 0.1194 0.27651 0.29496 0.4043 0.39063 0.12743 0.09566 0.33128 0.22385 0.45312 0.2832 0.12184 0.05936 0.31811 0.13515 0.4375 0.16797 0.15675 0.04362 0.3414 0.05869 0.66993 0.0566 0.39276-0.0017 0.49278-0.01574 0.73438-0.0957 0.15362-0.05099 0.38032-0.15039 0.5039-0.22265 0.12359-0.07259 0.32417-0.22548 0.44532-0.3379 0.12114-0.11277 0.29128-0.31173 0.3789-0.44336 0.08763-0.13197 0.20515-0.36647 0.26172-0.52148 0.0576-0.1578 0.11968-0.42407 0.14063-0.60352l0.03901-0.32227-0.40429-3.5781c-0.29826-2.6517-0.42131-3.6408-0.47657-3.8223-0.04077-0.13438-0.12805-0.34093-0.19336-0.45898-0.0653-0.11805-0.19069-0.30341-0.27734-0.41016-0.08728-0.10612-0.25088-0.26428-0.36328-0.35156-0.1124-0.08665-0.3115-0.21142-0.44336-0.27735-0.13186-0.06589-0.33431-0.14571-0.44922-0.17774-0.11554-0.0314-0.38277-0.06405-0.59375-0.07225zm30.646 5.3281c-0.17666 0.0017-0.42423 0.03156-0.58203 0.07033-0.15082 0.03701-0.39404 0.13057-0.54101 0.20703-0.14699 0.07644-0.35208 0.20847-0.45508 0.29296-0.10299 0.08449-0.25501 0.23686-0.33985 0.33985-0.0848 0.103-0.24695 0.36884-0.35937 0.58984-0.11206 0.22064-0.82496 1.6969-1.584 3.2812-0.75897 1.584-1.4054 2.9587-1.4375 3.0547-0.0322 0.09601-0.0764 0.30439-0.0977 0.46289-0.0283 0.21227-0.0291 0.36488 0 0.58203 0.0217 0.16235 0.0791 0.40772 0.12695 0.54492 0.0475 0.13686 0.13924 0.33869 0.20313 0.44726 0.0639 0.10892 0.24871 0.3304 0.4121 0.49414 0.20494 0.20529 0.37205 0.3378 0.54102 0.42578 0.13441 0.06983 0.34606 0.15963 0.4707 0.20117 0.14245 0.04747 0.35783 0.08347 0.57813 0.0957 0.21017 0.01155 0.44886 0.0033 0.59375-0.02152 0.13302-0.02302 0.34411-0.08356 0.46875-0.13281 0.12464-0.04956 0.33665-0.15986 0.47071-0.2461 0.13405-0.08623 0.33171-0.24745 0.43749-0.35742 0.10578-0.10998 0.24854-0.29732 0.31837-0.41602 0.0702-0.1187 0.81266-1.641 1.6484-3.3828 0.85743-1.7872 1.5452-3.2645 1.5801-3.3926 0.0412-0.15292 0.0618-0.35833 0.0626-0.6289 0.00083-0.2786-0.0176-0.47145-0.0605-0.62891-0.0338-0.12499-0.12547-0.3604-0.20508-0.52344-0.11729-0.24054-0.20593-0.35688-0.46289-0.61523-0.27197-0.27302-0.36333-0.34041-0.64649-0.47657-0.18188-0.08728-0.44377-0.18412-0.58202-0.21484-0.13826-0.03039-0.38962-0.05408-0.5586-0.05275zm-61.385 8.0859c-0.14384-0.009-0.34929-0.0042-0.45508 0.0098-0.10543 0.01465-0.28427 0.05467-0.39844 0.08789-0.11416 0.03349-0.2955 0.10408-0.40234 0.1582-0.10648 0.05375-0.29146 0.17019-0.41016 0.25782-0.1187 0.08728-0.2997 0.26048-0.40235 0.38477-0.1023 0.12429-0.24267 0.34103-0.3125 0.48242-0.07016 0.1414-0.15525 0.35813-0.18946 0.48242-0.04295 0.15572-0.06371 0.3551-0.06447 0.64453-0.0017 0.34285 0.01365 0.46728 0.08004 0.68164 0.04471 0.14384 0.13608 0.36636 0.20312 0.49414 0.06673 0.12779 0.17948 0.29938 0.25 0.38282 0.07016 0.08347 1.1818 1.3154 2.4707 2.7363 1.289 1.4209 2.4211 2.6421 2.5156 2.7129 0.09461 0.07125 0.29045 0.18422 0.43359 0.25195 0.14314 0.0674 0.36169 0.14883 0.48633 0.18164 0.14559 0.03809 0.35879 0.05894 0.59375 0.05861 0.26708-0.000686 0.44035-0.02101 0.63867-0.07619 0.14977-0.04153 0.36108-0.12062 0.47071-0.17578 0.10928-0.05551 0.29731-0.17213 0.41601-0.25977 0.1187-0.08728 0.30277-0.26445 0.40821-0.39258 0.10578-0.12813 0.24742-0.34397 0.31446-0.48047 0.06706-0.13685 0.14938-0.35193 0.18359-0.47656 0.04362-0.15886 0.06246-0.35358 0.06246-0.64649 0.000351-0.34004-0.01407-0.46707-0.08004-0.67968-0.04437-0.1442-0.13609-0.36636-0.20313-0.49414-0.06673-0.12778-0.17948-0.30133-0.25-0.38476-0.0705-0.08347-1.1818-1.3135-2.4707-2.7344-1.2886-1.4209-2.4201-2.6415-2.5137-2.7109-0.09391-0.06982-0.26961-0.17502-0.38867-0.23437-0.11905-0.05969-0.3307-0.14038-0.47071-0.17774-0.14034-0.03734-0.37143-0.0746-0.51562-0.08398zm37.879 1.252c-0.8735-0.0067-1.8712 0.0017-2.2168 0.01758-0.34563 0.01641-0.8721 0.04546-1.1699 0.06639-0.29745 0.02126-0.80022 0.06279-1.1172 0.0918-0.31666 0.02863-0.89718 0.09244-1.291 0.14062-0.39346 0.04856-0.97599 0.12565-1.293 0.17383-0.31666 0.04814-0.92128 0.15171-1.3437 0.22851-0.42244 0.07677-1.0886 0.20994-1.4824 0.29687-0.39346 0.08693-1.046 0.2427-1.4492 0.3457-0.40324 0.10299-1.0347 0.27277-1.4023 0.3789-0.36763 0.10613-1.012 0.30616-1.4316 0.44336-0.41964 0.13755-1.0528 0.3568-1.4082 0.48633-0.35506 0.12953-0.97566 0.3682-1.3789 0.53125-0.40324 0.16304-1.0476 0.43614-1.4316 0.60547-0.38404 0.16967-1.1938 0.55546-1.7988 0.85742-0.60468 0.30199-1.4128 0.72471-1.7969 0.93946-0.38404 0.21506-0.9724 0.55569-1.3086 0.75781-0.33586 0.20214-1.0203 0.6372-1.5195 0.9668-0.49925 0.32992-1.1993 0.81015-1.5547 1.0664-0.35506 0.25626-0.91366 0.67518-1.2422 0.92968-0.32818 0.25451-0.87875 0.69577-1.2227 0.98242-0.34354 0.28663-0.85232 0.72513-1.1309 0.97266-0.27825 0.24788-0.77316 0.70239-1.0996 1.0117-0.32644 0.30967-0.83694 0.81365-1.1348 1.1191-0.29745 0.30548-0.71423 0.74455-0.92578 0.97461-0.21191 0.23007-0.55069 0.60805-0.7539 0.83984-0.2032 0.23182-0.5639 0.6564-0.80274 0.94336-0.2388 0.28664-0.64812 0.79499-0.9082 1.1309-0.25975 0.33551-0.62718 0.82263-0.81641 1.082-0.18889 0.2594-0.52529 0.73799-0.74805 1.0645-0.22239 0.32643-0.57152 0.85326-0.77539 1.1699-0.20388 0.31666-0.51652 0.81937-0.69531 1.1172-0.17875 0.29745-0.49594 0.84804-0.70508 1.2227-0.20912 0.37426-0.62767 1.1746-0.92968 1.7793-0.30199 0.60468-0.68776 1.4148-0.85742 1.7988-0.16933 0.38404-0.44243 1.0284-0.60547 1.4316-0.16304 0.40324-0.40173 1.0235-0.53125 1.3789-0.12954 0.35506-0.33846 0.95972-0.46485 1.3438-0.12638 0.38404-0.31826 0.9965-0.42578 1.3613-0.10753 0.36483-0.28727 1.0252-0.40039 1.4668-0.11346 0.44165-0.27706 1.1237-0.36328 1.5176-0.08659 0.39346-0.22007 1.0619-0.29687 1.4844-0.07677 0.42244-0.18033 1.0268-0.22851 1.3438-0.04814 0.31666-0.11945 0.82753-0.1582 1.1348-0.03843 0.30723-0.10062 0.88156-0.13867 1.2754-0.03801 0.39346-0.08523 0.95803-0.10548 1.2558-0.02026 0.29745-0.05182 0.89398-0.07033 1.3262-0.01884 0.43187-0.03516 1.1941-0.03516 1.6934 0 0.49925 0.01591 1.2853 0.03516 1.7461 0.01917 0.46085 0.05082 1.0651 0.07033 1.3438 0.01993 0.27825 0.05894 0.76505 0.08789 1.082 0.02897 0.31666 0.0921 0.89914 0.14062 1.293 0.04856 0.39346 0.13576 1.0219 0.19337 1.3965 0.05794 0.37426 0.17549 1.0505 0.26172 1.502 0.08624 0.45107 0.21881 1.0935 0.29492 1.4297 0.07644 0.33585 0.23188 0.97245 0.3457 1.4141s0.22717 0.86979 0.25196 0.95117l0.04688 0.14844 0.41797-0.27344c0.23077-0.14978 0.60512-0.38448 0.83203-0.52344 0.22693-0.13894 0.68997-0.41205 1.0293-0.60546 0.33935-0.19376 1.0023-0.54399 1.4727-0.7793 0.47062-0.23531 1.1228-0.54528 1.4492-0.68946 0.32644-0.14419 0.82138-0.35326 1.0996-0.46288 0.2786-0.10997 0.51548-0.20591 0.52735-0.21289 0.01222-0.007 0.000745-0.10222-0.02537-0.21289-0.02621-0.11068-0.10943-0.49261-0.18555-0.84767-0.07577-0.35541-0.19399-0.96787-0.26172-1.3613-0.06773-0.39382-0.16116-1.0072-0.20898-1.3633-0.04781-0.35611-0.12014-0.96856-0.1582-1.3613-0.03843-0.39277-0.08884-0.99814-0.11328-1.3438-0.0262-0.37182-0.04337-1.2844-0.04295-2.2344 0-0.94056 0.01875-1.8664 0.04496-2.2344 0.02411-0.34563 0.06547-0.87831 0.09374-1.1856 0.02796-0.30723 0.08364-0.81811 0.12305-1.1348 0.03943-0.31701 0.11072-0.82772 0.1582-1.1328 0.04747-0.30549 0.126-0.76813 0.17383-1.0293 0.04814-0.26115 0.1432-0.73412 0.21093-1.0508 0.06773-0.31701 0.19306-0.85948 0.2793-1.2051 0.08624-0.34563 0.23567-0.90241 0.33203-1.2383 0.09671-0.33621 0.2708-0.90272 0.38672-1.2578 0.11556-0.35541 0.30959-0.91183 0.42969-1.2383 0.12045-0.32644 0.32068-0.84511 0.44531-1.1523 0.12464-0.30723 0.34737-0.83405 0.49609-1.1699 0.14873-0.33621 0.46504-1.0004 0.70312-1.4766 0.2381-0.47656 0.58519-1.1369 0.76953-1.4668 0.18468-0.33027 0.4769-0.83502 0.65039-1.1231 0.17387-0.28803 0.4949-0.79895 0.71484-1.1348 0.21995-0.33551 0.55075-0.82227 0.73438-1.082 0.18364-0.2594 0.47561-0.66018 0.64844-0.89063 0.17317-0.23042 0.53007-0.68654 0.79297-1.0137 0.26323-0.32679 0.6697-0.81353 0.90429-1.082 0.23462-0.26812 0.71882-0.79861 1.0742-1.1777 0.3554-0.3795 0.96895-0.9947 1.3652-1.3672 0.39626-0.37217 0.94018-0.87012 1.209-1.1055 0.26883-0.23496 0.76411-0.64645 1.0996-0.91602 0.33586-0.26952 0.82321-0.64927 1.084-0.84374 0.2608-0.19481 0.70913-0.51904 0.99609-0.71875 0.28698-0.20005 0.781-0.53047 1.0977-0.73438 0.31701-0.20354 0.7797-0.49246 1.0293-0.64257 0.24963-0.15013 0.73345-0.42831 1.0742-0.61719 0.34074-0.18922 0.96133-0.51356 1.3789-0.72266 0.41755-0.20912 1.0033-0.49219 1.3008-0.62696 0.29781-0.13441 0.79237-0.34844 1.0996-0.47656 0.30723-0.12813 0.88776-0.35574 1.291-0.50586 0.40324-0.14977 0.97794-0.35216 1.2754-0.44922 0.2978-0.09705 0.8383-0.26356 1.2031-0.37109 0.36484-0.10788 0.94736-0.26693 1.293-0.35351 0.34563-0.08693 0.91025-0.21896 1.2559-0.29297 0.34563-0.07435 0.88843-0.18298 1.2051-0.24024 0.317-0.0576 0.78779-0.13793 1.0469-0.17774 0.2594-0.03943 0.72401-0.10256 1.0312-0.14062 0.30723-0.03768 0.72239-0.08522 0.92382-0.10548 0.2018-0.01993 0.69636-0.05894 1.0996-0.08788 0.40324-0.0293 1.2671-0.06237 1.9199-0.07426 0.71608-0.01289 1.5483-0.005 2.0957 0.01951 0.49925 0.02235 1.2734 0.071 1.7207 0.10938 0.44758 0.03801 1.06 0.10062 1.3613 0.13867 0.30164 0.03801 0.76052 0.10116 1.0195 0.14062 0.25939 0.03943 0.73216 0.11854 1.0488 0.17578 0.31701 0.05727 0.83374 0.16078 1.1504 0.22851s0.85947 0.19307 1.2051 0.2793c0.34563 0.08624 0.90437 0.23602 1.2402 0.33203 0.3362 0.09601 1.0024 0.30494 1.4824 0.46485 0.48005 0.1599 1.1641 0.40415 1.5195 0.54101 0.35542 0.13686 0.98382 0.3933 1.3965 0.57031 0.41267 0.17666 1.1987 0.5416 1.7461 0.81251 0.54743 0.27092 1.2136 0.61546 1.4824 0.76562 0.26883 0.14977 0.80347 0.46134 1.1875 0.69141 0.38404 0.22972 1.0366 0.64161 1.4492 0.91601 0.41267 0.27407 1.0333 0.70707 1.3789 0.96094 0.34564 0.25417 0.9262 0.69995 1.291 0.99218 0.36484 0.29257 0.88353 0.72364 1.1523 0.95899 0.26882 0.23496 0.77974 0.70172 1.1348 1.0352 0.35541 0.33341 0.97059 0.94704 1.3672 1.3652 0.39624 0.4186 0.85748 0.91931 1.0254 1.1113 0.16758 0.19202 0.46948 0.54495 0.66992 0.78515 0.20039 0.23984 0.56055 0.68904 0.80078 0.99804 0.23985 0.30862 0.60998 0.80354 0.82226 1.0996 0.21192 0.29571 0.57951 0.8282 0.81446 1.1836 0.23496 0.3554 0.61524 0.95971 0.8457 1.3437 0.23042 0.38404 0.55595 0.95056 0.72461 1.2578 0.16861 0.30723 0.49759 0.94343 0.73047 1.4141 0.23286 0.47027 0.53083 1.0987 0.66211 1.3965 0.13162 0.29745 0.35324 0.82431 0.49219 1.1699 0.13861 0.34563 0.36454 0.9336 0.5 1.3086 0.13545 0.37496 0.33442 0.96564 0.44335 1.3105 0.10928 0.34493 0.29808 0.99079 0.41993 1.4355 0.12149 0.44479 0.30013 1.1588 0.39648 1.5879 0.0964 0.42907 0.22985 1.0785 0.29688 1.4434 0.0667 0.36483 0.16079 0.93135 0.20898 1.2578 0.0486 0.32643 0.11944 0.87509 0.1582 1.2207 0.0391 0.34563 0.0879 0.81022 0.10742 1.0312 0.0195 0.22064 0.0495 0.65174 0.0683 0.95898 0.0188 0.30723 0.0457 0.92281 0.0586 1.3672l0.0234 0.80859 0.63281 0.20899c0.34774 0.11486 0.90954 0.31112 1.25 0.4375 0.3404 0.12638 0.87353 0.33455 1.1836 0.46094 0.30967 0.12638 0.84719 0.35636 1.1953 0.51171 0.34842 0.15502 1.0099 0.4668 1.4707 0.69336 0.46085 0.22693 1.0241 0.50949 1.25 0.62891 0.22589 0.11975 0.41489 0.2108 0.42187 0.20312 0.008-0.008 0.0323-0.33508 0.0547-0.72851 0.0227-0.39382 0.0493-1.2277 0.0605-1.8516 0.0115-0.64972 0.003-1.5517-0.0195-2.1113-0.0224-0.53766-0.0569-1.198-0.0762-1.4668-0.0195-0.26882-0.0574-0.74779-0.0859-1.0644-0.0286-0.31701-0.0996-0.96139-0.15821-1.4316-0.0583-0.47062-0.16999-1.23-0.24609-1.6894-0.0761-0.45911-0.19984-1.1513-0.27734-1.5371-0.0775-0.38544-0.21135-0.99846-0.29688-1.3633-0.0855-0.36484-0.23658-0.96331-0.33398-1.3281-0.0974-0.36483-0.2766-0.99323-0.39844-1.3965-0.12219-0.40324-0.32332-1.0317-0.44726-1.3965-0.12394-0.36484-0.31908-0.91347-0.4336-1.2207-0.11487-0.30723-0.32687-0.84999-0.47071-1.2051-0.14384-0.35541-0.39903-0.95972-0.56836-1.3438-0.16967-0.38403-0.55545-1.1941-0.85741-1.7988-0.302-0.60469-0.72666-1.4128-0.94141-1.7969-0.21506-0.38404-0.55566-0.97468-0.75782-1.3105-0.20179-0.33621-0.66934-1.0662-1.0391-1.623-0.36973-0.55686-0.85015-1.2562-1.0684-1.5547-0.21821-0.29815-0.57311-0.76991-0.78712-1.0488-0.21367-0.27895-0.60685-0.77453-0.87499-1.0996-0.26813-0.32538-0.68067-0.8112-0.91602-1.0801-0.23566-0.26883-0.70027-0.77936-1.0312-1.1348-0.33132-0.35541-0.89903-0.93561-1.2617-1.291-0.36274-0.35541-0.94181-0.90416-1.2871-1.2187-0.34564-0.31491-0.94999-0.84108-1.3438-1.1699-0.39346-0.32888-0.95804-0.7874-1.2559-1.0195-0.29746-0.23217-0.77838-0.59418-1.0664-0.80469-0.28804-0.21018-0.79858-0.57199-1.1348-0.80274-0.33586-0.23112-0.89571-0.60146-1.2441-0.82422-0.34809-0.22239-0.93681-0.58348-1.3086-0.80273-0.37182-0.2189-0.95092-0.54912-1.2871-0.73242-0.33587-0.18365-0.9884-0.52156-1.4492-0.75195-0.46085-0.23042-1.0974-0.53744-1.4141-0.68165-0.31666-0.14419-0.74775-0.33535-0.95898-0.42578-0.21122-0.09042-0.6599-0.27539-0.99609-0.41015-0.33587-0.13477-0.87667-0.3428-1.2031-0.4629-0.32643-0.12044-0.98347-0.34624-1.459-0.50195-0.47586-0.15571-1.1362-0.36011-1.4668-0.45508-0.33097-0.09531-0.93889-0.26105-1.3516-0.36718-0.41267-0.10578-1.0329-0.25362-1.3789-0.33008-0.34598-0.07644-1.0063-0.21065-1.4668-0.29688-0.46049-0.08623-1.2228-0.21156-1.6934-0.27929-0.47028-0.06807-1.1388-0.15495-1.4844-0.19336-0.34563-0.03843-0.91025-0.09442-1.2559-0.12305-0.34563-0.02897-0.8962-0.0689-1.2227-0.08984-0.32643-0.02093-1.3078-0.04387-2.1816-0.05082zm47.707 12.146c-0.24963-0.0087-0.4587 0.0033-0.59765 0.03516-0.11801 0.02688-0.30556 0.08673-0.41797 0.13281-0.11278 0.04605-1.5335 0.8426-3.1562 1.7695-1.6224 0.92726-3.0465 1.7465-3.1641 1.8223-0.11766 0.07543-0.30645 0.23606-0.41992 0.35547-0.11346 0.11905-0.25657 0.29677-0.31837 0.39453-0.0622 0.09811-0.1539 0.27695-0.20312 0.39844-0.0496 0.1215-0.11179 0.33838-0.13868 0.48047-0.0273 0.14245-0.0488 0.34922-0.0488 0.46094s0.0216 0.32044 0.0488 0.46289c0.0269 0.1421 0.0911 0.35792 0.14063 0.48047 0.0499 0.12254 0.15387 0.32257 0.23243 0.44336 0.0785 0.12045 0.24847 0.31705 0.37695 0.4375 0.12883 0.1208 0.33504 0.27895 0.45898 0.35156 0.12393 0.07225 0.3503 0.17203 0.50391 0.22265 0.24474 0.08104 0.33929 0.09396 0.75195 0.0957h0.47071l0.29882-0.10352c0.22169-0.07677 1.1059-0.56279 3.4199-1.8828l3.123-1.7812 0.30078-0.29687c0.19412-0.19097 0.34876-0.38154 0.4336-0.53516 0.0726-0.13128 0.17147-0.35888 0.2207-0.50586 0.0782-0.23461 0.0898-0.32754 0.0898-0.74024 0-0.41266-0.0116-0.50364-0.0898-0.73828-0.0492-0.14698-0.14968-0.37459-0.22266-0.50586-0.0803-0.14454-0.24298-0.35006-0.41406-0.52149-0.17141-0.17107-0.37694-0.33376-0.52148-0.41406-0.13127-0.07292-0.35888-0.17127-0.50586-0.21875-0.199-0.06422-0.36679-0.08984-0.65235-0.09961zm-102.99 13.442c-0.2374-0.01013-0.42504 0.0025-0.58984 0.0391-0.13336 0.03006-0.33122 0.09077-0.43945 0.13476-0.10823 0.04396-0.28812 0.13812-0.39844 0.20899-0.11067 0.07091-0.28025 0.20254-0.37695 0.29296-0.09671 0.09007-0.2458 0.26237-0.33204 0.38282-0.08588 0.1208-0.20174 0.3243-0.25586 0.45312-0.05375 0.12918-0.12538 0.36891-0.1582 0.53125-0.04262 0.21157-0.05367 0.38079-0.03901 0.59376 0.01114 0.16409 0.04622 0.3926 0.07619 0.50781 0.02972 0.1152 0.12017 0.34247 0.20117 0.50585 0.11766 0.2374 0.20887 0.35982 0.46094 0.61328 0.25556 0.25731 0.37295 0.34475 0.61524 0.46485 0.22867 0.11311 0.48188 0.19251 1.082 0.33984 0.43082 0.10578 2.0022 0.49166 3.4902 0.85547 1.6821 0.41127 2.8054 0.66839 2.9727 0.68164 0.15781 0.01256 0.38343 0.0033 0.54297-0.02152 0.14977-0.02411 0.38937-0.08937 0.53321-0.14453 0.1442-0.05551 0.34769-0.15639 0.45312-0.22656 0.10579-0.06983 0.28351-0.21633 0.39453-0.32422 0.11102-0.10823 0.26409-0.29195 0.33985-0.40821 0.07577-0.11626 0.17621-0.3038 0.22265-0.41796 0.04647-0.11451 0.1099-0.32889 0.14063-0.47657 0.03039-0.14803 0.05467-0.36434 0.05467-0.47851 0-0.11416-0.0216-0.3224-0.04881-0.46485-0.02688-0.14209-0.09105-0.35988-0.14063-0.48242-0.0499-0.12254-0.15512-0.32186-0.23437-0.44336-0.07929-0.12184-0.25844-0.32842-0.39844-0.45899-0.16653-0.15572-0.355-0.2891-0.54492-0.38477-0.17317-0.08728-0.45191-0.18638-0.69141-0.24609-0.22065-0.05517-1.4475-0.3546-2.7246-0.66602-1.2768-0.31142-2.6674-0.65113-3.0898-0.75586-0.59561-0.14734-0.84625-0.1939-1.1172-0.20508zm81.644 23.624c-0.2594 0.004-0.61233 0.0107-0.78515 0.0157s-0.61173 0.0264-0.97656 0.0469c-0.36484 0.0203-0.91541 0.0608-1.2227 0.0898-0.30723 0.029-0.74612 0.0769-0.97656 0.10547-0.23043 0.0286-0.63124 0.0827-0.89063 0.12109-0.2594 0.0384-0.73217 0.11818-1.0488 0.17579-0.31666 0.0579-0.83374 0.15953-1.1504 0.22656-0.31666 0.0674-0.90818 0.2088-1.3125 0.31249-0.40394 0.10404-1.0483 0.28128-1.4316 0.39649-0.38299 0.11486-0.92257 0.28751-1.2012 0.38282-0.27825 0.0953-0.71912 0.25039-0.97851 0.3457-0.2594 0.0957-0.76179 0.2917-1.1172 0.43554-0.35542 0.14384-0.95971 0.40063-1.3438 0.57031-0.38404 0.16932-1.1382 0.52984-1.6758 0.80079-0.53765 0.27093-1.2676 0.65521-1.623 0.85351-0.35541 0.19831-0.95971 0.54819-1.3438 0.7793-0.38404 0.23112-0.9903 0.61035-1.3457 0.8418-0.35506 0.23146-0.92782 0.61669-1.2734 0.85547-0.34563 0.2388-0.96225 0.68191-1.3711 0.98632-0.40883 0.30444-0.97537 0.73677-1.2578 0.96094-0.28244 0.22449-0.74908 0.60553-1.0371 0.8457-0.28802 0.24056-0.70475 0.59477-0.92578 0.78712-0.22064 0.19202-0.57393 0.50627-0.78516 0.69726-0.21121 0.19132-0.75803 0.7015-1.2168 1.1348-0.4584 0.43361-1.1825 1.1495-1.6074 1.5918-0.42452 0.44235-0.99962 1.0567-1.2793 1.3633-0.27965 0.30654-0.72202 0.8013-0.98242 1.1016l-0.47461 0.54687-0.3789-0.32031c-0.20878-0.17561-0.61429-0.50844-0.90234-0.74023-0.28802-0.23147-0.75264-0.59381-1.0312-0.80469-0.27825-0.21122-0.74905-0.55725-1.0469-0.76953-0.29815-0.21227-0.8865-0.61342-1.3086-0.89063-0.42244-0.27755-1.0614-0.67896-1.4199-0.89258-0.35821-0.21366-0.94886-0.54988-1.3105-0.74609-0.3617-0.19621-0.93955-0.49328-1.2852-0.66015-0.34563-0.16689-0.83281-0.39359-1.082-0.50392-0.24962-0.10997-0.72041-0.30692-1.0469-0.43749-0.32678-0.13022-0.83694-0.32425-1.1348-0.42969-0.2978-0.10578-0.80831-0.27193-1.1348-0.3711-0.32643-0.0991-0.893-0.25833-1.2578-0.35156-0.36482-0.0932-0.97729-0.23304-1.3613-0.31054-0.38404-0.0772-0.96456-0.17873-1.291-0.22656-0.32642-0.0478-0.82137-0.11131-1.0996-0.14063-0.27824-0.0297-0.751-0.0712-1.0488-0.0918-0.2978-0.0203-1.0278-0.0371-1.623-0.0371-0.59525 0-1.3334 0.0182-1.6406 0.0391-0.30723 0.0213-0.84189 0.0691-1.1875 0.10743-0.34563 0.0381-0.87014 0.10842-1.168 0.15625-0.29745 0.0478-0.78616 0.13471-1.084 0.19336-0.29745 0.059-0.82236 0.17777-1.168 0.26367-0.34563 0.0859-0.86919 0.22662-1.1621 0.3125-0.29257 0.0859-0.8334 0.25963-1.2031 0.38672-0.36972 0.12672-0.99484 0.35977-1.3887 0.51757-0.39346 0.1578-0.92032 0.37816-1.1699 0.49023-0.24962 0.11172-0.83018 0.39535-1.291 0.62891-0.46084 0.23321-1.076 0.55875-1.3672 0.72461-0.29117 0.16549-0.75421 0.43824-1.0293 0.60548-0.27546 0.16758-0.72957 0.45359-1.0078 0.63476-0.27825 0.18154-0.74089 0.49477-1.0293 0.69726-0.28802 0.20249-0.76226 0.54488-1.0527 0.76172-0.29047 0.21646-0.80135 0.61375-1.1348 0.88086-0.33341 0.26743-0.84865 0.69398-1.1465 0.94922-0.29745 0.25521-0.79236 0.69335-1.0996 0.97265-0.30723 0.2793-0.98855 0.93169-1.5137 1.4512-0.52508 0.51914-1.2269 1.2344-1.5586 1.5898-0.33167 0.35506-0.80522 0.87626-1.0527 1.1562-0.24753 0.27965-0.65452 0.75049-0.90625 1.0469-0.25137 0.29606-0.74785 0.89982-1.1016 1.3418-0.35401 0.44199-0.9427 1.2042-1.3086 1.6934-0.36553 0.48913-0.79793 1.0782-0.96094 1.3086-0.16304 0.23043-0.49999 0.71722-0.75 1.082-0.24997 0.36483-0.63191 0.93483-0.84766 1.2676-0.21576 0.33272-0.54655 0.85138-0.73438 1.1524-0.18783 0.30094-0.52575 0.86048-0.75195 1.2441-0.22658 0.38404-0.56684 0.98454-0.75781 1.334-0.19063 0.34982-0.40082 0.78831-0.4668 0.97266-0.06597 0.18469-0.14542 0.48776-0.17578 0.67383-0.03977 0.24159-0.05099 0.45596-0.03709 0.75586 0.01155 0.24893 0.04889 0.53303 0.09179 0.69922 0.03977 0.15362 0.10258 0.36164 0.14063 0.46289 0.03768 0.10124 0.10988 0.26699 0.16015 0.36718 0.05023 0.10055 0.15491 0.27737 0.23242 0.39258 0.07753 0.11521 0.22255 0.3022 0.32031 0.41602 0.09811 0.11381 0.29199 0.29717 0.43164 0.4082 0.13965 0.11102 0.35005 0.26025 0.46875 0.33008 0.11905 0.0695 0.34374 0.17704 0.49805 0.24023 0.15431 0.0632 0.38318 0.14115 0.50781 0.17188 0.12464 0.0304 0.37258 0.0716 0.55273 0.0918 0.22554 0.0251 0.43701 0.0246 0.67579 0 0.19097-0.0195 0.46992-0.0671 0.62109-0.10548 0.15082-0.0384 0.40163-0.12415 0.55664-0.18944 0.15467-0.0653 0.41765-0.20894 0.58594-0.32032 0.16793-0.11137 0.43233-0.32971 0.58594-0.48437 0.15362-0.15431 0.34986-0.39133 0.43749-0.5254 0.08763-0.1344 0.29872-0.4955 0.46875-0.80273 0.17002-0.30722 0.49268-0.86404 0.7168-1.2383 0.22414-0.37461 0.57745-0.94893 0.78515-1.2754 0.20773-0.32642 0.59382-0.91514 0.85742-1.3086 0.26359-0.3938 0.6974-1.0222 0.96484-1.3965 0.26708-0.37461 0.6483-0.9011 0.84766-1.1699 0.19935-0.26882 0.55986-0.73963 0.80078-1.0469 0.24054-0.30723 0.64172-0.80753 0.89063-1.1113 0.24893-0.30408 0.67785-0.81496 0.95508-1.1348 0.27686-0.32014 0.74115-0.84161 1.0312-1.1582 0.29012-0.317 0.92938-0.97695 1.4199-1.4668 0.49016-0.48982 1.182-1.1519 1.5371-1.4707 0.35506-0.3191 0.81484-0.72192 1.0215-0.89649 0.20704-0.1749 0.60003-0.49539 0.87305-0.71289 0.27337-0.2175 0.67779-0.53052 0.89843-0.69531 0.221-0.16444 0.67585-0.48956 1.0117-0.7207 0.33621-0.23078 0.87862-0.58444 1.2051-0.78516 0.32644-0.20109 0.82917-0.4944 1.1172-0.65429 0.28803-0.15955 0.8526-0.45064 1.2559-0.64649 0.40324-0.1962 0.9219-0.43525 1.1523-0.53125 0.23042-0.0957 0.60747-0.24509 0.83789-0.33203 0.23042-0.0869 0.68962-0.24542 1.0195-0.35156 0.32993-0.10579 0.8864-0.26428 1.2383-0.35156 0.35192-0.0876 0.85496-0.19827 1.1172-0.2461 0.2622-0.0478 0.7112-0.11855 0.99609-0.15625 0.28488-0.0377 0.77368-0.0863 1.0879-0.10938 0.3624-0.0265 0.93826-0.034 1.5723-0.0215 0.54988 0.0108 1.1556 0.0357 1.3477 0.0566 0.19202 0.0209 0.57723 0.0699 0.85547 0.10938 0.27825 0.0394 0.77316 0.12668 1.0996 0.19336 0.32644 0.0663 0.77544 0.16861 0.99609 0.22656 0.221 0.0576 0.614 0.1695 0.87305 0.24805 0.25941 0.0782 0.73022 0.23475 1.0469 0.34961 0.31701 0.11486 0.85163 0.32722 1.1875 0.4707 0.33622 0.14314 0.92456 0.4159 1.3086 0.60547 0.38403 0.18957 1.0023 0.51787 1.373 0.73047 0.37078 0.21227 0.93537 0.553 1.2559 0.75586 0.3205 0.20318 0.81035 0.5289 1.0879 0.72265 0.27756 0.19377 0.72464 0.51573 0.99414 0.7168 0.26988 0.20075 0.74975 0.57239 1.0664 0.82617 0.31701 0.25347 0.81051 0.66244 1.0957 0.90821 0.28559 0.24543 0.78828 0.69134 1.1172 0.99023 0.32923 0.2992 1.5422 1.4813 2.6953 2.6289l2.0957 2.0879 1.3008-1.9199c0.71533-1.0558 1.4605-2.1361 1.6543-2.4004 0.19342-0.2643 0.53256-0.70804 0.7539-0.98634 0.22169-0.2786 0.64261-0.7906 0.93554-1.1387 0.29327-0.34808 0.82758-0.96052 1.1875-1.3613 0.35995-0.4008 1.1977-1.2722 1.8613-1.9356 0.66333-0.66334 1.4575-1.4303 1.7637-1.7051 0.30618-0.2751 0.76884-0.68441 1.0293-0.9082 0.26009-0.22414 0.64618-0.54755 0.85741-0.7207 0.21123-0.17282 0.53261-0.43394 0.71485-0.57813 0.18259-0.14418 0.55149-0.42801 0.82032-0.63086 0.26882-0.20283 0.66996-0.49742 0.89062-0.65625 0.22064-0.1592 0.77124-0.53566 1.2226-0.83593 0.45142-0.30025 1.1094-0.72067 1.4648-0.9336 0.35542-0.21332 0.906-0.53269 1.2227-0.70898 0.31666-0.1763 0.95324-0.50513 1.4141-0.73243 0.46084-0.22762 1.0574-0.51213 1.3262-0.63086 0.26882-0.1187 0.75558-0.3222 1.082-0.45312 0.32644-0.13057 0.83733-0.32424 1.1348-0.42969 0.2978-0.10543 0.77059-0.26232 1.0488-0.34961 0.27861-0.0869 0.6156-0.18976 0.75-0.22851 0.13442-0.0384 0.39393-0.11038 0.57617-0.1582 0.18259-0.0478 0.54334-0.13563 0.80274-0.19532 0.2594-0.06 0.66833-0.14692 0.9082-0.19336 0.2402-0.0461 0.62505-0.11464 0.85547-0.15234 0.23043-0.0377 0.60747-0.093 0.83789-0.12305 0.23043-0.0297 0.66154-0.0785 0.95898-0.10742 0.29781-0.029 0.94041-0.0684 1.4277-0.0879 0.60991-0.0244 1.1754-0.025 1.8125 0 0.50903 0.0203 1.2408 0.069 1.627 0.10742 0.38613 0.0388 0.96852 0.11003 1.2949 0.1582 0.32643 0.0486 0.90893 0.15045 1.293 0.22657 0.38404 0.0761 1.0584 0.23063 1.5 0.34375 0.44165 0.11346 1.086 0.29536 1.4316 0.40429 0.34563 0.10894 0.87247 0.28485 1.1699 0.39063 0.2978 0.10544 0.84766 0.31368 1.2226 0.46485 0.37531 0.15082 0.97962 0.41103 1.3438 0.57616 0.36413 0.16549 1.0392 0.49409 1.5 0.73048 0.46085 0.236 1.1156 0.58658 1.4531 0.77929 0.3376 0.19237 0.81769 0.47689 1.0684 0.63086 0.25032 0.15397 0.69769 0.43634 0.99413 0.62695 0.29641 0.19063 0.82996 0.54716 1.1836 0.79298 0.35401 0.24578 0.91607 0.64933 1.248 0.89648 0.33236 0.24683 0.85689 0.64819 1.168 0.89257 0.31107 0.24405 0.80997 0.64858 1.1074 0.89649 0.2978 0.24823 0.78458 0.66374 1.082 0.92383 0.2978 0.26009 0.79926 0.70932 1.1152 0.99804 0.31561 0.28873 0.98259 0.91643 1.4805 1.3965 0.49785 0.48004 0.99368 0.93979 1.1016 1.0215 0.10823 0.0817 0.33694 0.21951 0.50976 0.30469 0.17281 0.0852 0.41638 0.18641 0.54102 0.22656 0.12499 0.0401 0.3682 0.0985 0.54102 0.12891 0.22797 0.0401 0.43835 0.0503 0.76757 0.0371 0.32155-0.0132 0.55215-0.044 0.78711-0.10547 0.18259-0.0475 0.4552-0.14341 0.60742-0.21289 0.15187-0.0698 0.40664-0.21327 0.56445-0.31836 0.17212-0.1145 0.41709-0.32847 0.61329-0.53515 0.19447-0.20529 0.3963-0.46214 0.49999-0.63672 0.0953-0.16095 0.22622-0.43042 0.28907-0.59766 0.0632-0.16758 0.14101-0.41894 0.17383-0.55859 0.043-0.18538 0.0576-0.40578 0.0566-0.8125-0.002-0.48703-0.0129-0.60257-0.0918-0.90039-0.0499-0.18748-0.16306-0.49177-0.25-0.67579-0.0873-0.18363-0.2315-0.43861-0.32227-0.5664-0.0904-0.12778-0.33886-0.41068-0.55078-0.62891-0.21227-0.2182-0.76378-0.75336-1.2246-1.1894-0.46084-0.43606-1.0172-0.95582-1.2383-1.1562-0.22064-0.20041-0.53582-0.48403-0.69922-0.6289-0.16304-0.14489-0.51632-0.4509-0.78515-0.68165-0.26883-0.23077-0.75558-0.63881-1.082-0.90625-0.32643-0.26777-0.83694-0.67801-1.1348-0.91015-0.29745-0.23217-0.85677-0.65551-1.2422-0.94141-0.38579-0.28628-0.9946-0.72501-1.3535-0.97461-0.3589-0.24962-0.9867-0.67094-1.3945-0.93555-0.40778-0.26428-1.0395-0.65874-1.4043-0.87695-0.36484-0.2182-0.89752-0.53065-1.1855-0.69336-0.28804-0.16304-0.79859-0.44199-1.1348-0.62109-0.33584-0.17875-0.9-0.46477-1.252-0.63477-0.35192-0.17002-0.88654-0.41957-1.1875-0.55469-0.30093-0.13511-0.81423-0.35546-1.1406-0.49023-0.32642-0.1351-0.87686-0.35276-1.2246-0.48438-0.34772-0.13162-0.94344-0.34236-1.3223-0.46874-0.37914-0.12638-1.0373-0.33058-1.4629-0.45313-0.42523-0.12255-1.0626-0.29357-1.418-0.38086-0.35541-0.0876-1.0032-0.23142-1.4375-0.31836-0.43431-0.0873-1.093-0.20481-1.4648-0.26172-0.37216-0.0566-0.93491-0.13381-1.252-0.17187-0.31665-0.0384-0.86726-0.0953-1.2227-0.125-0.35505-0.0293-1.0395-0.0691-1.5195-0.0879-0.48004-0.0188-1.0844-0.0312-1.3438-0.0274z" />
</svg>