<?xml version="1.0" encoding="UTF-8" standalone="no"?>
<svg
   xmlns:dc="http://purl.org/dc/elements/1.1/"
   xmlns:cc="http://creativecommons.org/ns#"
   xmlns:rdf="http://www.w3.org/1999/02/22-rdf-syntax-ns#"
   xmlns:svg="http://www.w3.org/2000/svg"
   xmlns="http://www.w3.org/2000/svg"
   xmlns:xlink="http://www.w3.org/1999/xlink"
   id="svg7"
   xml:space="preserve"
   viewBox="0 0 1024 768"
   y="0px"
   x="0px"
   version="1.1"><metadata
     id="metadata13"><rdf:RDF><cc:Work
         rdf:about=""><dc:format>image/svg+xml</dc:format><dc:type
           rdf:resource="http://purl.org/dc/dcmitype/StillImage" /></cc:Work></rdf:RDF></metadata><defs
     id="defs11" /><g
     id="g3"
     transform="matrix(1.5,0,0,1.2,512,384)"><path
       style="fill:#6fb0e4"
       d="m 152.4,-201.9 c 46.6,26 86.9,68.5 97.2,116.9 10.4,48.3 -9.3,102.5 -32.2,150.3 -22.9,47.8 -49,89.1 -85.8,121.8 -36.8,32.8 -84.2,56.8 -135.5,62.2 -51.4,5.4 -106.6,-7.9 -148.6,-38.9 -42,-31 -70.8,-79.8 -87.5,-132.2 -16.8,-52.4 -21.5,-108.6 -2.2,-153.4 19.4,-44.8 62.9,-78.2 107.3,-105 44.4,-26.7 89.6,-46.8 138.7,-52 49.1,-5.3 102,4.2 148.6,30.3 z"
       id="path" /></g><animate
     fill="freeze"
     values="M120.2,-176.8C149.6,-144.2,162.8,-100.7,175.5,-57.9C188.3,-15,200.7,27.1,195.6,70.1C190.6,113,168.2,156.8,132.7,178C97.2,199.1,48.6,197.5,4.9,190.8C-38.8,184.1,-77.6,172.1,-115.3,151.7C-153,131.3,-189.7,102.4,-205.6,64.2C-221.6,26.1,-216.8,-21.4,-204,-67.9C-191.2,-114.4,-170.2,-160,-134.9,-190.6C-99.5,-221.3,-49.8,-237.2,-2.2,-234.2C45.5,-231.2,90.9,-209.5,120.2,-176.8Z; M152.4,-201.9C199,-175.9,239.3,-133.4,249.6,-85C260,-36.7,240.3,17.5,217.4,65.3C194.5,113.1,168.4,154.4,131.6,187.1C94.8,219.9,47.4,243.9,-3.9,249.3C-55.3,254.7,-110.5,241.4,-152.5,210.4C-194.5,179.4,-223.3,130.6,-240,78.2C-256.8,25.8,-261.5,-30.4,-242.2,-75.2C-222.8,-120,-179.3,-153.4,-134.9,-180.2C-90.5,-206.9,-45.3,-227,3.8,-232.2C52.9,-237.5,105.8,-228,152.4,-201.9Z; M101.9,-120.6C144.2,-109.5,199.1,-96,223.6,-62.7C248.2,-29.4,242.5,23.8,220.4,65.3C198.2,106.8,159.7,136.8,120.2,173.1C80.7,209.4,40.4,252.2,-4.7,258.7C-49.8,265.2,-99.5,235.3,-119,192.5C-138.5,149.7,-127.8,93.8,-144.4,46.1C-161,-1.6,-205.1,-41.3,-214.9,-88C-224.7,-134.6,-200.2,-188.3,-158.7,-199.6C-117.2,-210.9,-58.6,-180,-14.4,-160.1C29.8,-140.3,59.6,-131.6,101.9,-120.6Z; M113.1,-161.5C148.6,-129.9,180.8,-99.5,181.6,-66.3C182.3,-33.1,151.5,3.1,132.4,37.1C113.2,71.2,105.7,103.2,85.6,142.9C65.4,182.7,32.7,230.4,-3.9,235.8C-40.6,241.2,-81.1,204.3,-114.7,168.9C-148.3,133.5,-175,99.5,-198.1,57.5C-221.3,15.5,-240.9,-34.6,-221,-64.4C-201.2,-94.2,-141.7,-103.7,-98.3,-132.8C-54.9,-161.8,-27.4,-210.4,5.7,-218.2C38.8,-226.1,77.6,-193.1,113.1,-161.5Z; M102,-143.7C138.9,-113.5,180.3,-92.8,196.8,-59.7C213.4,-26.7,205.1,18.6,190.6,61.5C176.1,104.4,155.4,144.8,122.5,162.7C89.7,180.5,44.9,175.8,-1.2,177.4C-47.2,179,-94.4,187,-113.8,164.8C-133.1,142.5,-124.6,90.1,-143.6,43.8C-162.6,-2.6,-209.2,-42.9,-216.4,-85.7C-223.7,-128.5,-191.5,-173.9,-148.8,-202.2C-106.2,-230.5,-53.1,-241.7,-10.3,-227.6C32.5,-213.4,65,-173.9,102,-143.7Z; M120.2,-176.8C149.6,-144.2,162.8,-100.7,175.5,-57.9C188.3,-15,200.7,27.1,195.6,70.1C190.6,113,168.2,156.8,132.7,178C97.2,199.1,48.6,197.5,4.9,190.8C-38.8,184.1,-77.6,172.1,-115.3,151.7C-153,131.3,-189.7,102.4,-205.6,64.2C-221.6,26.1,-216.8,-21.4,-204,-67.9C-191.2,-114.4,-170.2,-160,-134.9,-190.6C-99.5,-221.3,-49.8,-237.2,-2.2,-234.2C45.5,-231.2,90.9,-209.5,120.2,-176.8Z"
     keySplines="0.9 0.1 0.1 0.9;0.9 0.1 0.1 0.9;0.9 0.1 0.1 0.9;0.9 0.1 0.1 0.9;0.9 0.1 0.1 0.9"
     calcMode="spline"
     keyTimes="0; 0.2; 0.4; 0.6; 0.8; 1"
     attributeName="d"
     repeatCount="indefinite"
     dur="20s"
     attributeType="XML"
     xlink:href="#path" /><path
     id="path5"
     transform="translate(153.6 115.2) scale(0.7)"
     fill="#fcfcfc"
     d="m502.39 214.07c-0.4-0.02-0.71 0-0.93 0.05-0.18 0.04-0.47 0.13-0.64 0.19-0.18 0.07-0.5 0.24-0.72 0.38-0.22 0.15-0.52 0.4-0.68 0.57s-0.38 0.44-0.49 0.62c-0.11 0.17-0.27 0.51-0.36 0.75s-0.18 0.66-0.22 0.94l-0.06 0.5 0.64 5.64c0.55 4.86 0.66 5.7 0.78 6.07 0.07 0.23 0.2 0.54 0.28 0.67 0.08 0.14 0.26 0.4 0.41 0.59s0.43 0.46 0.64 0.61c0.2 0.15 0.52 0.35 0.71 0.45 0.19 0.09 0.5 0.21 0.69 0.26 0.24 0.07 0.53 0.09 1.05 0.09 0.62 0 0.77-0.02 1.15-0.15 0.24-0.08 0.6-0.24 0.8-0.35 0.19-0.12 0.5-0.36 0.69-0.53 0.2-0.18 0.46-0.49 0.6-0.7s0.33-0.58 0.41-0.82c0.1-0.25 0.19-0.66 0.23-0.95l0.05-0.5-0.63-5.63c-0.47-4.17-0.66-5.72-0.75-6.01-0.06-0.21-0.2-0.53-0.3-0.72-0.11-0.19-0.3-0.47-0.44-0.64s-0.39-0.42-0.57-0.56c-0.18-0.13-0.49-0.33-0.7-0.43s-0.52-0.23-0.7-0.28c-0.19-0.05-0.61-0.1-0.94-0.11zm48.18 8.37c-0.28 0-0.67 0.05-0.92 0.11-0.23 0.06-0.62 0.21-0.85 0.33s-0.55 0.32-0.71 0.46c-0.16 0.13-0.4 0.37-0.54 0.53-0.13 0.16-0.39 0.58-0.56 0.93-0.18 0.34-1.3 2.67-2.49 5.16s-2.21 4.65-2.26 4.8-0.12 0.48-0.15 0.73c-0.05 0.33-0.05 0.57 0 0.91 0.03 0.26 0.12 0.64 0.2 0.86 0.07 0.21 0.21 0.53 0.31 0.7s0.4 0.52 0.65 0.78c0.32 0.32 0.59 0.53 0.85 0.67 0.21 0.11 0.55 0.25 0.74 0.31 0.23 0.08 0.57 0.14 0.91 0.16 0.33 0.01 0.71 0 0.94-0.04 0.2-0.04 0.54-0.13 0.73-0.21 0.2-0.08 0.53-0.25 0.74-0.39 0.21-0.13 0.52-0.38 0.69-0.56 0.17-0.17 0.39-0.46 0.5-0.65s1.28-2.58 2.59-5.32c1.35-2.81 2.43-5.13 2.49-5.33 0.06-0.24 0.09-0.57 0.09-0.99 0-0.44-0.02-0.74-0.09-0.99-0.06-0.2-0.2-0.57-0.33-0.82-0.18-0.38-0.32-0.56-0.72-0.97-0.43-0.43-0.57-0.53-1.02-0.75-0.28-0.14-0.7-0.29-0.91-0.33-0.22-0.05-0.62-0.09-0.88-0.09zm-96.5 12.71c-0.22-0.01-0.54-0.01-0.71 0.02-0.17 0.02-0.45 0.08-0.63 0.13-0.18 0.06-0.46 0.17-0.63 0.25-0.17 0.09-0.46 0.27-0.64 0.41-0.19 0.13-0.48 0.41-0.64 0.6-0.16 0.2-0.38 0.54-0.49 0.76s-0.24 0.56-0.3 0.76c-0.06 0.24-0.1 0.56-0.1 1.01 0 0.54 0.02 0.74 0.13 1.07 0.07 0.23 0.21 0.58 0.32 0.78 0.1 0.2 0.28 0.47 0.39 0.6 0.11 0.14 1.86 2.07 3.88 4.3 2.03 2.24 3.81 4.16 3.96 4.27s0.45 0.29 0.68 0.4c0.22 0.1 0.57 0.23 0.76 0.28 0.23 0.06 0.57 0.1 0.94 0.09 0.42 0 0.69-0.03 1-0.12 0.24-0.06 0.57-0.19 0.74-0.27 0.17-0.09 0.47-0.27 0.65-0.41 0.19-0.14 0.48-0.42 0.65-0.62 0.16-0.2 0.38-0.54 0.49-0.75 0.1-0.22 0.24-0.56 0.29-0.75 0.07-0.25 0.1-0.56 0.1-1.02 0-0.53-0.03-0.73-0.13-1.07-0.07-0.23-0.21-0.57-0.32-0.77-0.1-0.21-0.28-0.48-0.39-0.61s-1.86-2.06-3.88-4.3c-2.03-2.23-3.81-4.15-3.96-4.26-0.14-0.11-0.42-0.28-0.61-0.37-0.18-0.09-0.52-0.22-0.74-0.28s-0.58-0.11-0.81-0.13zm59.55 1.97c-1.37-0.01-2.94 0-3.49 0.03-0.54 0.02-1.37 0.07-1.84 0.1-0.46 0.04-1.25 0.1-1.75 0.14-0.5 0.05-1.41 0.15-2.03 0.23-0.62 0.07-1.53 0.19-2.03 0.27s-1.45 0.24-2.11 0.36c-0.67 0.12-1.72 0.33-2.34 0.47-0.62 0.13-1.64 0.38-2.28 0.54-0.63 0.16-1.62 0.43-2.2 0.6-0.58 0.16-1.59 0.48-2.25 0.69-0.66 0.22-1.66 0.56-2.21 0.77-0.56 0.2-1.54 0.58-2.17 0.83-0.64 0.26-1.65 0.69-2.25 0.95-0.61 0.27-1.88 0.88-2.83 1.35-0.95 0.48-2.22 1.14-2.82 1.48-0.61 0.34-1.53 0.87-2.06 1.19s-1.6 1-2.39 1.52c-0.78 0.52-1.88 1.27-2.44 1.67-0.56 0.41-1.44 1.07-1.96 1.47-0.51 0.4-1.38 1.09-1.92 1.54s-1.34 1.14-1.78 1.53c-0.43 0.39-1.21 1.11-1.72 1.59-0.52 0.49-1.32 1.28-1.79 1.76-0.46 0.48-1.12 1.17-1.45 1.53-0.34 0.36-0.87 0.96-1.19 1.32-0.32 0.37-0.89 1.03-1.26 1.48-0.38 0.45-1.02 1.25-1.43 1.78s-0.98 1.3-1.28 1.7c-0.3 0.41-0.83 1.16-1.18 1.68-0.35 0.51-0.89 1.34-1.21 1.84-0.33 0.49-0.82 1.28-1.1 1.75s-0.78 1.33-1.11 1.92-0.98 1.85-1.46 2.8c-0.47 0.95-1.08 2.22-1.35 2.83-0.26 0.6-0.69 1.61-0.95 2.25-0.25 0.63-0.63 1.61-0.83 2.17-0.21 0.55-0.54 1.51-0.73 2.11-0.2 0.6-0.5 1.57-0.67 2.14s-0.46 1.61-0.63 2.3c-0.18 0.7-0.44 1.77-0.58 2.39-0.13 0.62-0.34 1.67-0.46 2.33-0.12 0.67-0.28 1.62-0.36 2.12-0.08 0.49-0.19 1.3-0.25 1.78s-0.16 1.38-0.22 2-0.13 1.51-0.16 1.98-0.08 1.41-0.11 2.09-0.06 1.87-0.06 2.66c0 0.78 0.03 2.02 0.06 2.74 0.03 0.73 0.08 1.68 0.11 2.11 0.03 0.44 0.09 1.21 0.14 1.71 0.04 0.49 0.14 1.41 0.22 2.03 0.07 0.61 0.21 1.6 0.3 2.19s0.28 1.65 0.41 2.36c0.14 0.71 0.35 1.72 0.47 2.25s0.36 1.53 0.54 2.22c0.18 0.7 0.36 1.37 0.4 1.5l0.07 0.23 0.66-0.43c0.36-0.23 0.95-0.6 1.31-0.82 0.35-0.22 1.08-0.65 1.61-0.95 0.54-0.31 1.58-0.86 2.32-1.23s1.76-0.86 2.27-1.08c0.52-0.23 1.3-0.56 1.73-0.73 0.44-0.17 0.81-0.32 0.83-0.33s0.01-0.17-0.04-0.34c-0.04-0.17-0.17-0.77-0.29-1.33s-0.3-1.52-0.41-2.14-0.26-1.59-0.33-2.15c-0.08-0.55-0.19-1.52-0.25-2.14-0.06-0.61-0.14-1.56-0.18-2.11-0.04-0.58-0.06-2.02-0.06-3.51 0-1.48 0.03-2.93 0.07-3.51 0.03-0.54 0.1-1.38 0.15-1.87 0.04-0.48 0.13-1.28 0.19-1.78s0.17-1.3 0.25-1.78c0.07-0.48 0.19-1.21 0.27-1.62s0.23-1.15 0.33-1.65c0.11-0.5 0.31-1.35 0.44-1.89 0.14-0.55 0.37-1.42 0.52-1.95s0.43-1.42 0.61-1.98c0.18-0.55 0.49-1.43 0.67-1.95 0.19-0.51 0.51-1.32 0.71-1.81 0.19-0.48 0.54-1.31 0.78-1.83 0.23-0.53 0.73-1.58 1.1-2.33 0.38-0.75 0.92-1.78 1.21-2.3s0.75-1.32 1.02-1.77c0.28-0.45 0.78-1.25 1.13-1.78 0.34-0.53 0.86-1.29 1.15-1.7s0.75-1.04 1.02-1.4c0.27-0.37 0.83-1.08 1.25-1.59 0.41-0.52 1.05-1.29 1.42-1.71s1.13-1.25 1.69-1.85c0.56-0.59 1.52-1.56 2.14-2.15 0.63-0.58 1.48-1.36 1.9-1.73 0.43-0.37 1.2-1.02 1.73-1.45 0.53-0.42 1.3-1.02 1.71-1.32 0.41-0.31 1.11-0.81 1.56-1.13 0.45-0.31 1.23-0.83 1.73-1.15s1.23-0.78 1.62-1.01c0.39-0.24 1.15-0.68 1.69-0.97 0.53-0.3 1.51-0.81 2.16-1.14 0.66-0.33 1.58-0.77 2.05-0.98 0.46-0.22 1.24-0.56 1.72-0.76 0.49-0.2 1.4-0.56 2.04-0.79 0.63-0.24 1.53-0.55 2-0.71 0.47-0.15 1.32-0.41 1.89-0.58 0.58-0.17 1.49-0.42 2.03-0.56 0.55-0.13 1.43-0.34 1.98-0.46 0.54-0.12 1.39-0.29 1.89-0.38s1.24-0.21 1.65-0.27 1.14-0.16 1.62-0.22 1.13-0.14 1.45-0.17 1.1-0.09 1.73-0.14c0.63-0.04 1.99-0.1 3.02-0.12 1.13-0.02 2.43 0 3.29 0.03 0.79 0.04 2 0.12 2.71 0.18 0.7 0.06 1.66 0.15 2.14 0.21 0.47 0.06 1.19 0.17 1.6 0.23s1.15 0.18 1.65 0.27 1.31 0.25 1.81 0.36 1.35 0.31 1.89 0.44c0.54 0.14 1.42 0.37 1.95 0.52s1.58 0.48 2.33 0.73c0.76 0.25 1.83 0.64 2.39 0.85 0.56 0.22 1.55 0.62 2.19 0.9 0.65 0.28 1.89 0.85 2.75 1.28 0.86 0.42 1.91 0.97 2.33 1.2 0.42 0.24 1.26 0.72 1.87 1.09 0.6 0.36 1.63 1.01 2.28 1.44 0.64 0.43 1.62 1.11 2.16 1.51 0.55 0.4 1.46 1.1 2.03 1.56 0.58 0.46 1.39 1.14 1.81 1.51 0.43 0.37 1.23 1.1 1.79 1.62 0.56 0.53 1.52 1.49 2.15 2.15 0.62 0.66 1.35 1.44 1.61 1.75 0.26 0.3 0.74 0.85 1.05 1.23 0.32 0.38 0.88 1.08 1.26 1.57 0.38 0.48 0.96 1.26 1.29 1.73 0.34 0.46 0.91 1.3 1.28 1.86s0.97 1.51 1.33 2.11 0.88 1.49 1.14 1.98c0.27 0.48 0.78 1.48 1.15 2.22s0.83 1.73 1.04 2.2c0.21 0.46 0.56 1.29 0.77 1.83 0.22 0.55 0.58 1.47 0.79 2.06s0.53 1.52 0.7 2.06 0.47 1.56 0.66 2.26 0.47 1.82 0.62 2.5c0.15 0.67 0.36 1.69 0.47 2.26 0.1 0.58 0.25 1.47 0.33 1.98 0.07 0.51 0.18 1.38 0.24 1.92 0.07 0.54 0.14 1.27 0.17 1.62s0.08 1.03 0.11 1.51 0.07 1.45 0.09 2.15l0.04 1.27 0.99 0.33c0.55 0.18 1.43 0.49 1.97 0.69s1.37 0.52 1.86 0.72 1.33 0.56 1.88 0.8c0.55 0.25 1.59 0.74 2.31 1.09 0.73 0.36 1.61 0.81 1.96 0.99 0.36 0.19 0.66 0.33 0.67 0.32s0.05-0.53 0.09-1.14c0.03-0.62 0.07-1.93 0.09-2.91 0.02-1.02 0.01-2.44-0.03-3.32-0.03-0.85-0.09-1.88-0.12-2.31-0.03-0.42-0.09-1.17-0.14-1.67-0.04-0.5-0.15-1.51-0.25-2.25-0.09-0.74-0.26-1.94-0.38-2.66s-0.32-1.81-0.44-2.41c-0.12-0.61-0.33-1.57-0.46-2.15-0.14-0.57-0.38-1.51-0.53-2.08-0.15-0.58-0.43-1.56-0.63-2.2-0.19-0.63-0.5-1.62-0.7-2.19-0.19-0.58-0.5-1.44-0.68-1.93-0.18-0.48-0.51-1.33-0.74-1.89-0.22-0.56-0.63-1.51-0.89-2.11-0.27-0.61-0.88-1.88-1.35-2.83-0.48-0.95-1.14-2.22-1.48-2.82-0.34-0.61-0.87-1.53-1.19-2.06s-1.05-1.68-1.64-2.56c-0.58-0.87-1.33-1.97-1.67-2.44-0.35-0.47-0.9-1.21-1.24-1.65s-0.96-1.21-1.38-1.73c-0.42-0.51-1.07-1.27-1.44-1.69-0.37-0.43-1.1-1.23-1.62-1.79s-1.41-1.47-1.98-2.03-1.48-1.42-2.02-1.91c-0.55-0.5-1.5-1.32-2.12-1.84s-1.5-1.24-1.97-1.6c-0.47-0.37-1.22-0.94-1.68-1.27-0.45-0.33-1.25-0.9-1.78-1.26s-1.41-0.95-1.96-1.3c-0.54-0.35-1.47-0.91-2.06-1.26-0.58-0.34-1.49-0.86-2.02-1.15s-1.55-0.82-2.28-1.18c-0.72-0.37-1.72-0.85-2.22-1.07-0.5-0.23-1.17-0.53-1.51-0.67-0.33-0.15-1.03-0.44-1.56-0.65s-1.38-0.54-1.9-0.73c-0.51-0.19-1.54-0.54-2.29-0.79-0.74-0.24-1.78-0.56-2.3-0.71s-1.48-0.41-2.13-0.58c-0.65-0.16-1.62-0.4-2.17-0.52-0.54-0.12-1.58-0.33-2.3-0.46-0.72-0.14-1.92-0.34-2.66-0.44-0.74-0.11-1.79-0.25-2.33-0.31-0.55-0.06-1.44-0.15-1.98-0.19-0.54-0.05-1.41-0.11-1.92-0.14s-2.06-0.07-3.43-0.08zm74.99 19.09c-0.39-0.01-0.72 0.01-0.94 0.06-0.18 0.04-0.48 0.13-0.65 0.21-0.18 0.07-2.41 1.32-4.97 2.78-2.55 1.46-4.78 2.75-4.97 2.86-0.18 0.12-0.48 0.37-0.66 0.56s-0.4 0.47-0.5 0.62c-0.1 0.16-0.24 0.44-0.32 0.63s-0.17 0.53-0.22 0.75c-0.04 0.23-0.08 0.55-0.08 0.73s0.04 0.5 0.08 0.73c0.05 0.22 0.15 0.56 0.22 0.75 0.08 0.2 0.25 0.51 0.37 0.7s0.39 0.5 0.59 0.69 0.53 0.43 0.72 0.55c0.2 0.11 0.55 0.27 0.8 0.35 0.38 0.13 0.53 0.15 1.18 0.15h0.74l0.47-0.16c0.35-0.12 1.74-0.89 5.37-2.96l4.91-2.8 0.47-0.47c0.31-0.3 0.55-0.6 0.69-0.84 0.11-0.21 0.27-0.57 0.34-0.8 0.13-0.37 0.14-0.51 0.14-1.16s-0.01-0.79-0.14-1.16c-0.07-0.23-0.23-0.59-0.35-0.8-0.12-0.22-0.38-0.55-0.65-0.81-0.27-0.27-0.59-0.53-0.82-0.66-0.2-0.11-0.56-0.27-0.79-0.34-0.31-0.1-0.58-0.14-1.03-0.16zm-161.91 21.13c-0.37-0.01-0.67 0.01-0.93 0.06-0.21 0.05-0.52 0.15-0.69 0.22-0.17 0.06-0.45 0.21-0.62 0.32-0.18 0.11-0.44 0.32-0.59 0.46-0.16 0.15-0.39 0.42-0.53 0.61-0.13 0.19-0.31 0.51-0.4 0.71-0.08 0.2-0.2 0.58-0.25 0.83-0.06 0.34-0.08 0.6-0.06 0.94 0.02 0.25 0.07 0.61 0.12 0.8 0.05 0.18 0.19 0.53 0.32 0.79 0.18 0.37 0.33 0.57 0.72 0.96 0.4 0.41 0.59 0.55 0.97 0.74 0.36 0.18 0.76 0.3 1.7 0.53 0.68 0.17 3.15 0.77 5.49 1.34 2.64 0.65 4.41 1.06 4.67 1.08 0.25 0.02 0.6 0 0.85-0.04 0.24-0.03 0.61-0.14 0.84-0.22 0.23-0.09 0.55-0.25 0.71-0.36 0.17-0.11 0.45-0.34 0.62-0.51 0.18-0.17 0.42-0.46 0.54-0.64s0.27-0.48 0.35-0.66c0.07-0.18 0.17-0.52 0.22-0.75s0.09-0.57 0.09-0.75-0.04-0.51-0.08-0.73c-0.04-0.23-0.14-0.56-0.22-0.76-0.08-0.19-0.25-0.51-0.37-0.7s-0.41-0.51-0.63-0.72c-0.26-0.24-0.56-0.45-0.85-0.6-0.28-0.14-0.72-0.3-1.09-0.39-0.35-0.09-2.28-0.56-4.28-1.05-2.01-0.49-4.2-1.02-4.86-1.19-0.94-0.23-1.33-0.3-1.76-0.32zm128.34 37.14c-0.4 0.01-0.96 0.02-1.23 0.03s-0.97 0.04-1.54 0.07-1.44 0.1-1.92 0.14c-0.48 0.05-1.17 0.12-1.54 0.17-0.36 0.04-0.99 0.13-1.4 0.19-0.4 0.06-1.14 0.18-1.64 0.27s-1.32 0.26-1.81 0.36c-0.5 0.11-1.43 0.33-2.06 0.49-0.64 0.16-1.65 0.45-2.25 0.63-0.61 0.18-1.46 0.45-1.89 0.6-0.44 0.15-1.13 0.39-1.54 0.54s-1.2 0.46-1.76 0.69c-0.56 0.22-1.51 0.63-2.11 0.89-0.6 0.27-1.79 0.83-2.64 1.26-0.84 0.43-1.99 1.03-2.55 1.34-0.55 0.31-1.51 0.87-2.11 1.23s-1.55 0.96-2.11 1.32c-0.56 0.37-1.46 0.97-2.01 1.34-0.54 0.38-1.51 1.08-2.15 1.56-0.65 0.48-1.53 1.16-1.98 1.51-0.44 0.35-1.18 0.95-1.63 1.33s-1.11 0.93-1.45 1.23c-0.35 0.31-0.91 0.8-1.24 1.1s-1.19 1.1-1.91 1.78c-0.72 0.69-1.86 1.81-2.53 2.51-0.66 0.69-1.57 1.66-2.01 2.14s-1.13 1.26-1.54 1.73l-0.75 0.86-0.59-0.5c-0.33-0.28-0.97-0.8-1.42-1.17-0.46-0.36-1.18-0.93-1.62-1.26s-1.18-0.88-1.65-1.21c-0.47-0.34-1.39-0.97-2.06-1.4-0.66-0.44-1.67-1.07-2.23-1.41-0.56-0.33-1.49-0.86-2.06-1.17-0.57-0.3-1.47-0.77-2.02-1.04-0.54-0.26-1.31-0.61-1.7-0.79-0.39-0.17-1.13-0.48-1.65-0.68-0.51-0.21-1.31-0.51-1.78-0.68s-1.27-0.43-1.78-0.59c-0.52-0.15-1.41-0.4-1.98-0.54-0.57-0.15-1.54-0.37-2.14-0.49s-1.52-0.28-2.03-0.36-1.29-0.17-1.73-0.22-1.18-0.11-1.65-0.15c-0.46-0.03-1.61-0.05-2.55-0.05-0.93 0-2.09 0.02-2.58 0.06-0.48 0.03-1.32 0.11-1.86 0.17-0.55 0.06-1.37 0.17-1.84 0.24-0.47 0.08-1.23 0.21-1.7 0.31-0.47 0.09-1.3 0.27-1.84 0.41-0.55 0.13-1.37 0.36-1.83 0.49-0.46 0.14-1.31 0.41-1.89 0.61s-1.56 0.57-2.18 0.81c-0.62 0.25-1.45 0.6-1.84 0.77-0.39 0.18-1.31 0.62-2.03 0.99s-1.69 0.88-2.15 1.14-1.19 0.69-1.62 0.95c-0.43 0.27-1.14 0.71-1.58 1-0.44 0.28-1.17 0.78-1.62 1.1s-1.2 0.86-1.66 1.2c-0.45 0.34-1.25 0.96-1.78 1.38-0.52 0.42-1.33 1.09-1.8 1.49s-1.25 1.09-1.73 1.53-1.56 1.47-2.38 2.28c-0.83 0.82-1.93 1.94-2.45 2.5s-1.26 1.38-1.65 1.82-1.03 1.18-1.43 1.64c-0.39 0.47-1.17 1.42-1.73 2.11-0.56 0.7-1.48 1.9-2.06 2.66-0.57 0.77-1.25 1.7-1.51 2.06-0.25 0.36-0.79 1.13-1.18 1.7-0.39 0.58-0.99 1.47-1.33 2-0.34 0.52-0.86 1.34-1.15 1.81-0.3 0.47-0.83 1.35-1.19 1.95-0.35 0.61-0.89 1.55-1.19 2.1s-0.63 1.24-0.73 1.53c-0.11 0.29-0.23 0.76-0.28 1.06-0.06 0.38-0.08 0.72-0.06 1.19 0.02 0.39 0.08 0.84 0.15 1.1 0.06 0.24 0.16 0.56 0.22 0.72s0.17 0.42 0.25 0.58 0.25 0.44 0.37 0.62 0.35 0.47 0.5 0.65 0.46 0.47 0.68 0.65c0.22 0.17 0.55 0.4 0.74 0.51 0.18 0.11 0.53 0.28 0.78 0.38 0.24 0.1 0.6 0.22 0.8 0.27 0.19 0.05 0.58 0.11 0.87 0.14 0.35 0.04 0.68 0.04 1.06 0 0.3-0.03 0.74-0.1 0.97-0.16 0.24-0.06 0.64-0.2 0.88-0.3s0.66-0.33 0.92-0.51c0.27-0.17 0.68-0.51 0.92-0.75 0.24-0.25 0.55-0.62 0.69-0.83s0.47-0.78 0.74-1.26c0.26-0.49 0.77-1.36 1.12-1.95 0.36-0.59 0.91-1.49 1.24-2 0.32-0.52 0.93-1.44 1.34-2.06 0.42-0.62 1.1-1.61 1.52-2.2s1.02-1.41 1.34-1.84c0.31-0.42 0.87-1.16 1.25-1.64 0.38-0.49 1.01-1.27 1.4-1.75s1.07-1.28 1.51-1.78c0.43-0.51 1.16-1.33 1.62-1.82 0.45-0.5 1.46-1.54 2.23-2.31s1.86-1.81 2.41-2.31c0.56-0.5 1.29-1.14 1.61-1.41 0.33-0.28 0.94-0.78 1.37-1.12s1.07-0.83 1.41-1.09c0.35-0.26 1.07-0.77 1.6-1.13 0.52-0.37 1.38-0.92 1.89-1.24s1.3-0.78 1.76-1.03c0.45-0.25 1.34-0.71 1.97-1.02 0.63-0.3 1.45-0.68 1.81-0.83 0.37-0.15 0.96-0.39 1.32-0.52 0.36-0.14 1.08-0.39 1.6-0.55 0.52-0.17 1.4-0.42 1.95-0.56 0.55-0.13 1.34-0.31 1.75-0.38 0.42-0.08 1.12-0.19 1.57-0.25s1.22-0.14 1.71-0.17c0.57-0.04 1.47-0.06 2.47-0.04 0.86 0.02 1.82 0.06 2.12 0.09 0.3 0.04 0.91 0.12 1.35 0.18 0.43 0.06 1.21 0.2 1.72 0.3 0.52 0.11 1.22 0.27 1.57 0.36s0.96 0.26 1.37 0.39c0.41 0.12 1.15 0.37 1.65 0.55s1.34 0.51 1.86 0.74c0.53 0.22 1.46 0.65 2.06 0.95 0.61 0.3 1.58 0.81 2.16 1.15 0.58 0.33 1.47 0.86 1.97 1.18 0.51 0.32 1.28 0.83 1.71 1.14 0.44 0.3 1.14 0.81 1.57 1.13 0.42 0.31 1.18 0.9 1.67 1.3 0.5 0.39 1.28 1.04 1.72 1.42 0.45 0.39 1.25 1.09 1.76 1.56 0.52 0.47 2.43 2.33 4.24 4.13l3.29 3.28 2.05-3.01c1.12-1.66 2.29-3.36 2.6-3.78 0.3-0.41 0.84-1.11 1.18-1.55 0.35-0.44 1.01-1.24 1.47-1.79 0.47-0.55 1.31-1.51 1.87-2.14 0.57-0.63 1.88-2 2.93-3.04 1.04-1.04 2.29-2.25 2.77-2.68s1.21-1.08 1.62-1.43 1.01-0.86 1.34-1.13c0.34-0.27 0.84-0.68 1.13-0.91 0.29-0.22 0.87-0.67 1.29-0.99s1.05-0.78 1.4-1.03c0.34-0.25 1.21-0.84 1.92-1.32 0.71-0.47 1.75-1.13 2.3-1.46 0.56-0.34 1.43-0.84 1.92-1.12 0.5-0.27 1.5-0.79 2.23-1.15 0.72-0.36 1.66-0.8 2.08-0.99 0.43-0.19 1.19-0.51 1.7-0.71 0.52-0.21 1.32-0.51 1.79-0.68s1.21-0.41 1.65-0.55c0.43-0.14 0.96-0.3 1.18-0.36 0.21-0.06 0.61-0.17 0.9-0.25 0.29-0.07 0.86-0.21 1.26-0.3 0.41-0.1 1.05-0.23 1.43-0.31 0.38-0.07 0.98-0.18 1.35-0.24 0.36-0.06 0.95-0.14 1.31-0.19s1.04-0.12 1.51-0.17c0.47-0.04 1.48-0.11 2.24-0.14 0.96-0.04 1.85-0.04 2.85 0 0.8 0.03 1.95 0.11 2.56 0.17s1.52 0.17 2.04 0.25c0.51 0.08 1.42 0.24 2.03 0.36 0.6 0.12 1.66 0.36 2.36 0.54 0.69 0.18 1.7 0.46 2.25 0.63 0.54 0.17 1.37 0.45 1.84 0.62 0.47 0.16 1.33 0.49 1.92 0.73 0.59 0.23 1.54 0.64 2.11 0.9s1.64 0.78 2.36 1.15 1.75 0.92 2.28 1.23c0.53 0.3 1.29 0.75 1.68 0.99 0.4 0.24 1.1 0.68 1.57 0.98 0.46 0.3 1.3 0.86 1.85 1.25 0.56 0.39 1.44 1.02 1.97 1.41 0.52 0.39 1.35 1.02 1.84 1.4 0.48 0.39 1.27 1.02 1.74 1.41 0.46 0.39 1.23 1.04 1.7 1.45 0.46 0.41 1.25 1.12 1.75 1.57 0.49 0.46 1.54 1.44 2.32 2.2 0.79 0.75 1.57 1.48 1.74 1.6 0.17 0.13 0.53 0.35 0.8 0.48 0.27 0.14 0.65 0.3 0.85 0.36s0.58 0.15 0.85 0.2c0.36 0.06 0.69 0.08 1.21 0.06 0.5-0.02 0.86-0.07 1.23-0.17 0.29-0.07 0.72-0.22 0.96-0.33s0.64-0.34 0.88-0.5c0.28-0.18 0.66-0.52 0.97-0.85 0.31-0.32 0.62-0.72 0.79-1 0.15-0.25 0.35-0.67 0.45-0.93 0.1-0.27 0.22-0.66 0.27-0.88 0.07-0.3 0.09-0.64 0.09-1.28 0-0.77-0.02-0.95-0.14-1.42-0.08-0.29-0.26-0.77-0.39-1.06-0.14-0.29-0.37-0.69-0.51-0.89s-0.53-0.64-0.87-0.99c-0.33-0.34-1.2-1.18-1.92-1.87-0.73-0.68-1.6-1.5-1.95-1.82-0.35-0.31-0.84-0.75-1.1-0.98-0.25-0.23-0.81-0.71-1.23-1.08-0.43-0.36-1.19-1-1.7-1.42-0.52-0.42-1.32-1.07-1.79-1.43-0.46-0.37-1.34-1.03-1.95-1.48s-1.56-1.14-2.13-1.53c-0.56-0.39-1.55-1.05-2.19-1.47s-1.63-1.04-2.21-1.38c-0.57-0.34-1.41-0.83-1.86-1.09-0.46-0.26-1.26-0.7-1.79-0.98-0.52-0.28-1.41-0.73-1.96-0.99-0.56-0.27-1.39-0.66-1.87-0.88-0.47-0.21-1.28-0.56-1.79-0.77s-1.38-0.55-1.93-0.76-1.48-0.54-2.07-0.74c-0.6-0.2-1.63-0.52-2.3-0.71s-1.68-0.46-2.24-0.6c-0.55-0.14-1.57-0.36-2.25-0.5-0.69-0.13-1.72-0.32-2.31-0.41-0.58-0.09-1.47-0.21-1.97-0.27-0.49-0.06-1.36-0.15-1.92-0.2-0.56-0.04-1.63-0.1-2.38-0.13-0.76-0.03-1.71-0.05-2.12-0.05zm56.93 102.38c-13.21 0-15.95 6.77-16.19 16.76h-5.8v9.67h5.8v34.63h11.28v-34.63h17.07v-9.67h-17.07c0.08-4.75 0.72-6.69 5.23-6.69h11.84v-10.07h-12.16zm-355.97 4.68v56.38h12.08v-56.38h-12.08zm12.08 0l10.47 56.38h12.89l-10.47-56.38h-12.89zm23.36 56.38h12.89l10.47-56.38h-12.89l-10.47 56.38zm23.36-56.38v56.38h12.09v-56.38h-12.09zm155.94 0v7.25h11.27v-7.25h-11.27zm206.87 0v56.38h11.27v-56.38h-11.27zm55.06 0l-20.14 56.38h4.27l20.14-56.38h-4.27zm4.27 0l20.14 56.38h4.27l-20.14-56.38h-4.27zm27.03 0v56.38h4.03v-56.38h-4.03zm-408.75 11.27c-15.55 0-24.81 7.98-24.81 22.96 0 14.34 8.7 22.96 24.81 22.96 15.55 0 24.81-7.98 24.81-22.96 0-14.34-8.7-22.96-24.81-22.96zm90.09 0c-7.41 0-11.92 2.02-14.58 5.8v-4.99h-11.28v44.3h11.28v-24.16c0-6.53 4.99-10.07 12.16-10.07 7.41 0 12.16 3.86 12.16 10.07v24.16h11.28v-24.16c0-13.05-8.78-20.95-21.02-20.95zm66.86 0c-7.41 0-11.92 2.02-14.58 5.8v-4.99h-11.28v44.3h11.28v-24.16c0-6.53 4.99-10.07 12.16-10.07 7.41 0 12.16 3.86 12.16 10.07v24.16h11.28v-24.16c0-13.05-8.78-20.95-21.02-20.95zm47.05 0c-15.55 0-23.2 7.98-23.2 22.96 0 14.34 7.09 22.96 23.2 22.96 7.89 0 12.49-2.1 15.15-6.04v4.43c0 6.52-4.27 11.19-13.46 11.19-4.27 0-8.13-1.69-10.71-6.52h-12.16c2.41 12.24 12.16 17.4 22.87 17.4 14.18 0 24.73-8.62 24.73-19.09v-46.48h-11.27v5.15c-2.58-3.86-7.17-5.96-15.15-5.96zm-175.32 0.81v44.3h11.28v-21.1c0-6.93 6.2-13.54 16.59-13.54h4.99v-9.66h-4.99c-7.73 0-13.29 2.17-16.59 7.65v-7.65h-11.28zm242.42 0v24.16c0 13.05 8.78 20.95 21.03 20.95 7.41 0 11.92-2.02 14.58-5.8v4.99h11.27v-44.3h-11.27v24.16c0 6.53-5 10.07-12.17 10.07-7.41 0-12.16-3.86-12.16-10.07v-24.16h-11.28zm-155.58 0v44.3h11.27v-44.3h-11.27zm-115.52 10.07c8.78 0 13.53 4.51 13.53 12.08 0 7.89-4.99 12.08-13.53 12.08-8.78 0-13.53-4.51-13.53-12.08 0-7.89 4.99-12.08 13.53-12.08zm205.61 0c8.78 0 13.54 4.51 13.54 12.08 0 7.89-5 12.08-13.54 12.08-8.78 0-13.53-4.51-13.53-12.08 0-7.89 4.99-12.08 13.53-12.08zm-188.41 81.55v22.86h14.46v-2.2h-11.84v-8.3h11.19v-2.21h-11.19v-7.94h11.84v-2.21h-14.46zm84.42 0v22.86h2.47l-0.03-17.57 7.45 13.94h1.89l7.42-14.07-0.03 17.7h2.43v-22.86h-2.17l-8.56 16.57-8.66-16.57h-2.21zm114.04 0l8 22.86h2.24l6.52-18.71 6.52 18.71h2.27l7.98-22.86h-2.6l-6.55 19.13-6.55-19.1-2.01-0.03-6.65 19.1-6.48-19.1h-2.69zm38.85 0.23v2.95h3.17v-2.95h-3.17zm-210.38 6.45c-1.08 0-2.21 0.19-3.37 0.55-1.15 0.35-2.13 0.81-2.95 1.4l0.87 1.91c1.79-1.12 3.6-1.69 5.42-1.69 1.21 0 2.08 0.31 2.62 0.91 0.54 0.59 0.81 1.54 0.81 2.86v1.07h-0.71c-2.47 0-4.39 0.15-5.77 0.45-1.39 0.28-2.38 0.76-2.98 1.43-0.61 0.65-0.91 1.56-0.91 2.75 0 0.89 0.25 1.7 0.74 2.43 0.5 0.74 1.17 1.31 2.01 1.72 0.87 0.41 1.81 0.62 2.82 0.62 1.11 0 2.08-0.25 2.92-0.75 0.85-0.51 1.47-1.24 1.88-2.17v2.69h2.56v-9.95c0-2.1-0.49-3.66-1.49-4.67-0.97-1.04-2.46-1.56-4.47-1.56zm18.41 0c-1.84 0-3.31 0.43-4.41 1.3-1.1 0.86-1.65 2-1.65 3.4 0 1.08 0.35 1.99 1.07 2.73 0.71 0.73 1.74 1.25 3.08 1.55l2.66 0.62c0.95 0.22 1.63 0.51 2.04 0.87 0.41 0.37 0.62 0.87 0.62 1.5 0 0.75-0.32 1.34-0.94 1.75-0.61 0.39-1.5 0.58-2.66 0.58-1.11 0-2.1-0.14-2.99-0.42-0.86-0.3-1.72-0.79-2.56-1.46l-0.87 1.95c1.55 1.36 3.66 2.04 6.32 2.04 1.92 0 3.44-0.41 4.54-1.23 1.12-0.82 1.69-1.93 1.69-3.31 0-1.13-0.36-2.03-1.08-2.72-0.71-0.72-1.8-1.25-3.27-1.59l-2.69-0.65c-0.84-0.2-1.46-0.48-1.85-0.85-0.37-0.38-0.55-0.89-0.55-1.52 0-0.76 0.3-1.34 0.91-1.75 0.62-0.43 1.49-0.65 2.59-0.65 1.73 0 3.32 0.62 4.77 1.85l0.87-1.91c-0.67-0.67-1.5-1.18-2.49-1.53-1-0.36-2.05-0.55-3.15-0.55zm74.57 0c-1.49 0-2.81 0.34-3.95 1.01-1.13 0.67-2 1.63-2.63 2.88-0.61 1.23-0.91 2.67-0.91 4.31 0 1.65 0.3 3.1 0.91 4.35 0.63 1.23 1.5 2.18 2.63 2.85 1.14 0.67 2.46 1.01 3.95 1.01s2.81-0.34 3.96-1.01c1.14-0.67 2.02-1.62 2.62-2.85 0.63-1.25 0.94-2.7 0.94-4.35 0-1.64-0.31-3.08-0.94-4.31-0.6-1.25-1.48-2.21-2.62-2.88-1.15-0.67-2.47-1.01-3.96-1.01zm21.41 0c-1.19 0-2.25 0.26-3.18 0.78-0.93 0.5-1.65 1.23-2.17 2.2v-2.59h-2.6v15.79h2.63v-9.05c0-1.51 0.43-2.71 1.3-3.59 0.86-0.89 2.02-1.34 3.47-1.34 1.25 0 2.16 0.34 2.72 1.01 0.59 0.67 0.88 1.74 0.88 3.21v9.76h2.63v-9.92c0-4.17-1.9-6.26-5.68-6.26zm19.03 0c-1.45 0-2.75 0.35-3.89 1.04-1.13 0.69-2 1.66-2.63 2.92-0.62 1.23-0.94 2.66-0.94 4.28 0 2.55 0.7 4.55 2.11 6 1.43 1.44 3.37 2.17 5.84 2.17 1.12 0 2.22-0.18 3.3-0.55 1.09-0.39 1.97-0.91 2.66-1.56l-0.87-1.91c-1.54 1.25-3.22 1.88-5.06 1.88-1.66 0-2.95-0.47-3.86-1.4-0.91-0.95-1.4-2.34-1.49-4.18h11.54v-0.97c0-2.4-0.59-4.28-1.78-5.64-1.19-1.39-2.83-2.08-4.93-2.08zm94.72 0c-1.18 0-2.24 0.26-3.17 0.78-0.93 0.5-1.66 1.23-2.18 2.2v-2.59h-2.59v15.79h2.63v-9.05c0-1.51 0.43-2.71 1.29-3.59 0.87-0.89 2.02-1.34 3.47-1.34 1.26 0 2.17 0.34 2.73 1.01 0.58 0.67 0.87 1.74 0.87 3.21v9.76h2.63v-9.92c0-4.17-1.89-6.26-5.68-6.26zm18.16 0c-1.84 0-3.31 0.43-4.41 1.3-1.1 0.86-1.65 2-1.65 3.4 0 1.08 0.35 1.99 1.07 2.73 0.71 0.73 1.74 1.25 3.08 1.55l2.66 0.62c0.95 0.22 1.63 0.51 2.04 0.87 0.41 0.37 0.61 0.87 0.61 1.5 0 0.75-0.31 1.34-0.93 1.75-0.61 0.39-1.5 0.58-2.66 0.58-1.11 0-2.1-0.14-2.99-0.42-0.86-0.3-1.72-0.79-2.56-1.46l-0.87 1.95c1.55 1.36 3.66 2.04 6.32 2.04 1.92 0 3.44-0.41 4.54-1.23 1.12-0.82 1.68-1.93 1.68-3.31 0-1.13-0.35-2.03-1.07-2.72-0.71-0.72-1.8-1.25-3.27-1.59l-2.69-0.65c-0.85-0.2-1.46-0.48-1.85-0.85-0.37-0.38-0.55-0.89-0.55-1.52 0-0.76 0.3-1.34 0.9-1.75 0.63-0.43 1.5-0.65 2.6-0.65 1.73 0 3.32 0.62 4.77 1.85l0.87-1.91c-0.67-0.67-1.5-1.18-2.5-1.53-0.99-0.36-2.04-0.55-3.14-0.55zm-35.67 0.39v15.79h2.63v-15.79h-2.63zm-182.68 0.03l6.68 15.57-2.66 6.03h2.7l9.33-21.6h-2.62l-5.35 12.91-5.29-12.91h-2.79zm115.78 0l6.68 15.57-2.66 6.03h2.69l9.34-21.6h-2.62l-5.35 12.91-5.29-12.91h-2.79zm-10.28 1.62c1.36 0 2.43 0.44 3.18 1.3 0.76 0.84 1.16 2.07 1.2 3.67h-9.18c0.16-1.58 0.64-2.8 1.46-3.67 0.85-0.86 1.96-1.3 3.34-1.3zm-40.47 0.13c1.54 0 2.73 0.53 3.57 1.59 0.84 1.04 1.26 2.52 1.26 4.44 0 1.97-0.42 3.48-1.26 4.51-0.82 1.02-2.01 1.53-3.57 1.53s-2.76-0.52-3.6-1.56c-0.82-1.04-1.23-2.53-1.23-4.48 0-1.92 0.42-3.4 1.26-4.44 0.85-1.06 2.04-1.59 3.57-1.59zm-90.16 6.52h0.58v0.94c0 1.39-0.42 2.52-1.26 3.41-0.82 0.86-1.88 1.29-3.18 1.29-0.93 0-1.71-0.27-2.33-0.81-0.61-0.56-0.91-1.26-0.91-2.1 0-0.74 0.2-1.29 0.61-1.66 0.44-0.39 1.15-0.66 2.14-0.81 1-0.17 2.45-0.26 4.35-0.26z" /></svg>