<?xml version="1.0" encoding="utf-8"?>
<svg version="1.1" xmlns:cc="http://creativecommons.org/ns#" xmlns:dc="http://purl.org/dc/elements/1.1/" xmlns:rdf="http://www.w3.org/1999/02/22-rdf-syntax-ns#" xmlns="http://www.w3.org/2000/svg" xmlns:xlink="http://www.w3.org/1999/xlink" x="0px" y="0px" viewBox="0 0 1024 768" xml:space="preserve">

 
 <g id="logo-group" transform="translate(-161.85 -130.54) scale(1.3161)">
  <path id="path195097" style="font-variant-ligatures:none" d="m405.94 498.27h10.989v1.6755h-8.9936v6.0368h8.5008v1.6755h-8.5008v6.3078h8.9936v1.6755h-10.989z" stroke-miterlimit="2" stroke-width="0" fill="#b8c6ca"/>
  <path id="path195099" style="font-variant-ligatures:none" d="m426.41 503.35q2.2915 0 3.4003 1.1827 1.1334 1.1581 1.1334 3.5482v7.5645h-1.9466v-2.0451q-0.46816 1.0595-1.4291 1.6509-0.96096 0.56672-2.2176 0.56672-1.1581 0-2.1437-0.46816-0.96096-0.46816-1.5277-1.3059-0.56672-0.83776-0.56672-1.848 0-1.3552 0.68992-2.0944 0.68992-0.76384 2.2669-1.0842 1.577-0.34496 4.3859-0.34496h0.54208v-0.81312q0-1.503-0.616-2.1683-0.616-0.68992-1.9958-0.68992-2.0698 0-4.1149 1.2813l-0.66528-1.4538q0.93632-0.66528 2.2422-1.0595 1.3306-0.41888 2.5626-0.41888zm-0.78848 10.891q1.4784 0 2.4147-0.9856 0.96096-1.0102 0.96096-2.5872v-0.71456h-0.44352q-2.1683 0-3.3018 0.19712-1.1334 0.17248-1.6262 0.616-0.46816 0.41888-0.46816 1.2566 0 0.96096 0.68992 1.6016 0.71456 0.616 1.7741 0.616z" stroke-miterlimit="2" stroke-width="0" fill="#b8c6ca"/>
  <path id="path195101" style="font-variant-ligatures:none" d="m440.17 515.81q-3.0307 0-4.8048-1.5523l0.66528-1.4784q0.96096 0.76384 1.9466 1.1088 1.0102 0.32032 2.2669 0.32032 1.3306 0 2.0205-0.44352 0.71456-0.46816 0.71456-1.3306 0-0.71456-0.46816-1.1334-0.46816-0.41888-1.5523-0.66528l-2.0205-0.46816q-1.5277-0.34496-2.3408-1.1827-0.81312-0.83776-0.81312-2.0698 0-1.6016 1.2566-2.5872t3.351-0.9856q1.2566 0 2.3901 0.41888 1.1334 0.39424 1.8973 1.1581l-0.66528 1.4538q-1.6509-1.4045-3.6221-1.4045-1.2566 0-1.9712 0.4928-0.68992 0.46816-0.68992 1.3306 0 0.71456 0.41888 1.1581 0.44352 0.41888 1.4045 0.64064l2.0451 0.4928q1.6755 0.39424 2.4886 1.2074 0.81312 0.78848 0.81312 2.0698 0 1.577-1.2813 2.5133-1.2566 0.93632-3.4496 0.93632z" stroke-miterlimit="2" stroke-width="0" fill="#b8c6ca"/>
  <path id="path195103" style="font-variant-ligatures:none" d="m459.84 503.67-7.0963 16.41h-2.0451l2.0205-4.583-5.0758-11.827h2.119l4.0163 9.8067 4.0656-9.8067z" stroke-miterlimit="2" stroke-width="0" fill="#b8c6ca"/>
  <path id="path195105" style="font-variant-ligatures:none" d="m486.5 498.27v17.371h-1.848l0.0246-13.453-5.6426 10.694h-1.4291l-5.6672-10.595 0.0246 13.355h-1.8726v-17.37h1.6755l6.5789 12.591 6.505-12.591z" stroke-miterlimit="2" stroke-width="0" fill="#b8c6ca"/>
  <path id="path195107" style="font-variant-ligatures:none" d="m497.06 515.81q-1.7002 0-3.0061-0.76384-1.2813-0.76384-1.9958-2.1683-0.68992-1.4291-0.68992-3.3018 0-1.8726 0.68992-3.2771 0.71456-1.4291 1.9958-2.193 1.3059-0.76384 3.0061-0.76384t3.0061 0.76384 1.9958 2.193q0.71456 1.4045 0.71456 3.2771t-0.71456 3.3018q-0.68992 1.4045-1.9958 2.1683-1.3059 0.76384-3.0061 0.76384zm0-1.6509q1.7741 0 2.7104-1.1581 0.96096-1.1827 0.96096-3.425 0-2.193-0.96096-3.3757-0.96096-1.2074-2.7104-1.2074t-2.7104 1.2074q-0.96096 1.1827-0.96096 3.3757 0 2.2176 0.93632 3.4003 0.96096 1.1827 2.735 1.1827z" stroke-miterlimit="2" stroke-width="0" fill="#b8c6ca"/>
  <path id="path195109" style="font-variant-ligatures:none" d="m513.32 503.35q4.312 0 4.312 4.7555v7.5398h-1.9958v-7.4166q0-1.6755-0.66528-2.4394-0.64064-0.76384-2.0698-0.76384-1.6509 0-2.6365 1.0102t-0.9856 2.735v6.8746h-1.9958v-12h1.9712v1.9712q0.59136-1.1088 1.6509-1.6755 1.0595-0.59136 2.4147-0.59136z" stroke-miterlimit="2" stroke-width="0" fill="#b8c6ca"/>
  <path id="path195111" style="font-variant-ligatures:none" d="m532.88 509.95h-8.7718q0.0986 2.0944 1.1334 3.1786 1.0349 1.0595 2.9322 1.0595 2.0944 0 3.8438-1.4291l0.66528 1.4538q-0.78848 0.7392-2.0205 1.1827-1.232 0.41888-2.5133 0.41888-2.809 0-4.4352-1.6509-1.6016-1.6509-1.6016-4.5584 0-1.848 0.71456-3.2525 0.71456-1.4291 1.9958-2.2176 1.3059-0.78848 2.9568-0.78848 2.3901 0 3.7453 1.577 1.3552 1.5523 1.3552 4.2874zm-5.0758-5.0512q-1.577 0-2.5379 0.9856-0.93632 0.9856-1.1088 2.7843h6.9731q-0.0493-1.8234-0.91168-2.7843-0.8624-0.9856-2.4147-0.9856z" stroke-miterlimit="2" stroke-width="0" fill="#b8c6ca"/>
  <path id="path195113" style="font-variant-ligatures:none" d="m547.81 503.67-7.0963 16.41h-2.04l2.0205-4.583-5.0758-11.827h2.119l4.0163 9.8067 4.0656-9.8067z" stroke-miterlimit="2" stroke-width="0" fill="#b8c6ca"/>
  <path id="path195115" style="font-variant-ligatures:none" d="m582.21 498.27-6.0614 17.371h-1.7248l-4.9526-14.217-4.9526 14.217h-1.7l-6.09-17.37h2.0451l4.928 14.513 5.0512-14.513 1.5277 0.0246 4.9773 14.513 4.9773-14.538z" stroke-miterlimit="2" stroke-width="0" fill="#b8c6ca"/>
  <path id="path195117" style="font-variant-ligatures:none" d="m586.45 503.64h1.9958v12h-1.9958zm2.2176-5.199v2.2422h-2.4147v-2.2422z" stroke-miterlimit="2" stroke-width="0" fill="#b8c6ca"/>
  <path id="path195119" style="font-variant-ligatures:none" d="m599.75 503.35q4.312 0 4.312 4.7555v7.5398h-1.9958v-7.4166q0-1.6755-0.66528-2.4394-0.64064-0.76384-2.0698-0.76384-1.6509 0-2.6365 1.0102t-0.9856 2.735v6.8746h-1.9958v-12h1.9712v1.9712q0.59136-1.1088 1.6509-1.6755 1.0595-0.59136 2.4147-0.59136z" stroke-miterlimit="2" stroke-width="0" fill="#b8c6ca"/>
  <path id="path195121" style="font-variant-ligatures:none" d="m613.33 515.81q-3.0307 0-4.8048-1.5523l0.66528-1.4784q0.96096 0.76384 1.9466 1.1088 1.0102 0.32032 2.2669 0.32032 1.3306 0 2.0205-0.44352 0.71456-0.46816 0.71456-1.3306 0-0.71456-0.46816-1.1334-0.46816-0.41888-1.5523-0.66528l-2.0205-0.46816q-1.5277-0.34496-2.3408-1.1827-0.81312-0.83776-0.81312-2.0698 0-1.6016 1.2566-2.5872t3.351-0.9856q1.2566 0 2.3901 0.41888 1.1334 0.39424 1.8973 1.1581l-0.66528 1.4538q-1.6509-1.4045-3.6221-1.4045-1.2566 0-1.9712 0.4928-0.68992 0.46816-0.68992 1.3306 0 0.71456 0.41888 1.1581 0.44352 0.41888 1.4045 0.64064l2.0451 0.4928q1.6755 0.39424 2.4886 1.2074 0.81312 0.78848 0.81312 2.0698 0 1.577-1.2813 2.5133-1.2566 0.93632-3.4496 0.93632z" stroke-miterlimit="2" stroke-width="0" fill="#b8c6ca"/>
  <path id="path25" style="font-variant-ligatures:normal" d="m326.67 419.47v42.844h-9.1807v-42.84zm9.7928 0 7.9567 42.844h-9.7928l-7.9567-42.844zm15.913 0h9.7928l-7.9567 42.844h-9.7928zm9.7928 0h9.1809v42.844h-9.1809z" class="c1" stroke-miterlimit="2" stroke-width="0" fill="#4ba5f1"/>
  <path id="path28" style="font-variant-ligatures:normal" d="m374.03 445.48c0-11.384 7.0384-17.444 18.851-17.444 12.241 0 18.851 6.549 18.851 17.444 0 11.384-7.0386 17.444-18.851 17.444-12.241 0-18.851-6.549-18.851-17.444zm18.851 9.1808c6.4879 0 10.283-3.1827 10.283-9.1808 0-5.7533-3.6113-9.1808-10.283-9.1808-6.4877 0-10.282 3.1827-10.282 9.1808-0.00001 5.7533 3.611 9.1808 10.282 9.1808z" class="c1" stroke-miterlimit="2" stroke-width="0" fill="#4ba5f1"/>
  <path id="path31" style="font-variant-ligatures:normal" d="m414.67 428.65h8.5687v5.8145c2.5095-4.162 6.7328-5.8145 12.608-5.8145h3.7947v7.3446h-3.7947c-7.8955 0-12.608 5.0189-12.608 10.282v16.036h-8.5687z" class="c1" stroke-miterlimit="2" stroke-width="0" fill="#4ba5f1"/>
  <path id="path34" style="font-variant-ligatures:normal" d="m459.49 436.3c-5.4472 0-9.2419 2.693-9.2419 7.6507v18.362h-8.5689v-33.663h8.5689v3.7947c2.0198-2.8766 5.4472-4.4068 11.078-4.4068 9.3033 0 15.975 5.9982 15.975 15.913v18.362h-8.5687v-18.362c0.00001-4.7128-3.611-7.6507-9.2421-7.6507z" class="c1" stroke-miterlimit="2" stroke-width="0" fill="#4ba5f1"/>
  <path id="path37" style="font-variant-ligatures:normal" d="m489.22 428.65v33.663h-8.5687v-33.663z" class="c1" stroke-miterlimit="2" stroke-width="0" fill="#4ba5f1"/>
  <rect id="rect39" style="font-variant-ligatures:normal" height="5.5085" width="8.5687" stroke-miterlimit="2" y="419.47" x="480.65" stroke-width="0" class="c3" fill="#b8c6ca"/>
  <path id="path42" style="font-variant-ligatures:normal" d="m510.29 436.3c-5.4472 0-9.2419 2.693-9.2419 7.6507v18.362h-8.5689v-33.663h8.5689v3.7947c2.0198-2.8766 5.4472-4.4068 11.078-4.4068 9.3033 0 15.975 5.9982 15.975 15.913v18.362h-8.5687v-18.362c0.00001-4.7128-3.611-7.6507-9.2421-7.6507z" class="c1" stroke-miterlimit="2" stroke-width="0" fill="#4ba5f1"/>
  <path id="path45" style="font-variant-ligatures:normal" d="m531.78 465.25h9.242c1.9586 3.6724 4.8964 4.9576 8.1403 4.9576 6.9774 0 10.221-3.5499 10.221-8.5075v-3.3663c-2.0198 2.999-5.5084 4.5904-11.507 4.5904-12.241 0-17.627-6.549-17.627-17.444 0-11.384 5.8145-17.444 17.627-17.444 6.0594 0 9.548 1.5914 11.507 4.5292v-3.9171h8.5688v35.315c0 7.9567-8.0179 14.506-18.79 14.506-8.1402 0-15.546-3.9171-17.382-13.22zm17.321-10.588c6.4877 0 10.282-3.1827 10.282-9.1808 0-5.7533-3.611-9.1808-10.282-9.1808-6.4879 0-10.283 3.1827-10.283 9.1808 0 5.7533 3.6112 9.1808 10.283 9.1808z" class="c1" stroke-miterlimit="2" stroke-width="0" fill="#4ba5f1"/>
  <path id="path48" style="font-variant-ligatures:normal" d="m597.2 423.57h-8.9972c-3.4275 0-3.9171 1.4689-3.9782 5.08h12.975v7.3446h-12.975v26.318h-8.5688v-26.318h-4.4068v-7.3446h4.4068c0.18355-7.5894 2.2646-12.731 12.302-12.731h9.242z" class="c1" stroke-miterlimit="2" stroke-width="0" fill="#4ba5f1"/>
  <path id="path51" style="font-variant-ligatures:normal" d="m598.86 447.01v-18.36h8.5689v18.362c0 4.7128 3.6108 7.6507 9.2421 7.6507 5.447 0 9.2417-2.693 9.2417-7.6507v-18.36h8.5689v33.663h-8.5689v-3.7947c-2.0196 2.8766-5.447 4.4068-11.078 4.4068-9.3035 0.00001-15.975-5.9981-15.975-15.913z" class="c1" stroke-miterlimit="2" stroke-width="0" fill="#4ba5f1"/>
  <path id="path54" style="font-variant-ligatures:normal" d="m646.4 419.47v42.844h-8.5689v-42.84z" class="c1" stroke-miterlimit="2" stroke-width="0" fill="#4ba5f1"/>
  <path id="path57" style="font-variant-ligatures:normal" d="m686.16 419.47 15.301 42.844h-3.25l-15.3-42.84z" class="c3" stroke-miterlimit="2" stroke-width="0" fill="#b8c6ca"/>
  <polygon id="polygon59" style="font-variant-ligatures:normal" transform="matrix(.85 0 0 .85 599.16 358.35)" class="c1" points="80.525 122.32 76.709 122.32 94.71 71.915 98.526 71.915" stroke-miterlimit="2" stroke-width="0" fill="#4ba5f1"/>
  <path id="path62" style="font-variant-ligatures:normal" d="m706.51 419.47v42.844h-3.0603v-42.84z" class="c3" stroke-miterlimit="2" stroke-width="0" fill="#b8c6ca"/>
  <path id="icon" stroke-width=".75" fill="#b8c6ca" d="m504.7 261.83c-0.30358-0.0117-0.54335 0.002-0.7089 0.0405-0.13761 0.0317-0.35737 0.098-0.48831 0.14761-0.13093 0.0492-0.37488 0.17973-0.5421 0.2894-0.16722 0.11008-0.40115 0.30315-0.51959 0.42951-0.11842 0.12635-0.28522 0.3386-0.36987 0.47121-0.0851 0.1326-0.2085 0.38989-0.2748 0.57129-0.0667 0.18223-0.14053 0.50165-0.16555 0.71307l-0.045 0.38364 0.48247 4.286c0.41575 3.6884 0.4979 4.331 0.59048 4.6078 0.0592 0.17722 0.15637 0.40615 0.21558 0.50957 0.0592 0.103 0.19974 0.30441 0.31233 0.44661 0.11259 0.14261 0.32901 0.35237 0.48164 0.46662 0.1522 0.11425 0.39615 0.26563 0.54168 0.33652 0.14553 0.0709 0.38072 0.16137 0.52333 0.20058 0.18723 0.0521 0.40824 0.0709 0.80063 0.0684 0.46912-0.002 0.58713-0.0179 0.8757-0.11342 0.18348-0.0609 0.45453-0.1814 0.60214-0.26771 0.14762-0.0867 0.38698-0.26772 0.53168-0.40199 0.14469-0.13469 0.34861-0.37363 0.45327-0.53084 0.10467-0.15763 0.24561-0.43785 0.31317-0.62299 0.0688-0.18849 0.14304-0.50583 0.16806-0.72016l0.045-0.38364-0.48121-4.2742c-0.35625-3.1672-0.504-4.35-0.57-4.5668-0.0487-0.1605-0.153-0.40725-0.231-0.54825s-0.22725-0.36075-0.33075-0.48825c-0.10425-0.12675-0.29925-0.31575-0.4335-0.42-0.13425-0.1035-0.3735-0.25275-0.531-0.3315-0.1575-0.0788-0.399-0.174-0.53625-0.21225-0.138-0.0375-0.45675-0.0765-0.70875-0.0863zm36.604 6.3643c-0.211 0.002-0.50582 0.0371-0.6943 0.0834-0.18015 0.0442-0.4708 0.15555-0.64635 0.24687-0.17556 0.0913-0.41951 0.24894-0.54253 0.34986-0.12301 0.10091-0.30649 0.28398-0.40782 0.40699-0.10133 0.12302-0.29398 0.4391-0.42826 0.70307-0.13385 0.26354-0.98535 2.0275-1.892 3.9198-0.90653 1.892-1.6797 3.5341-1.718 3.6488-0.0384 0.11467-0.0905 0.36321-0.11592 0.55252-0.0338 0.25354-0.0338 0.43702 0.001 0.69639 0.0259 0.19391 0.0934 0.48623 0.15054 0.6501 0.0567 0.16346 0.16555 0.40366 0.24186 0.53334 0.0763 0.1301 0.29773 0.39615 0.49289 0.59172 0.24478 0.2452 0.44453 0.40199 0.64635 0.50708 0.16054 0.0834 0.41408 0.19224 0.56295 0.24186 0.17014 0.0567 0.42784 0.0992 0.69097 0.11384 0.25103 0.0138 0.53584 0.003 0.7089-0.0271 0.15888-0.0275 0.41116-0.0984 0.56003-0.1572 0.14887-0.0592 0.40241-0.19182 0.56253-0.29482 0.16013-0.103 0.3949-0.29482 0.52125-0.42617 0.12635-0.13136 0.29815-0.35487 0.38155-0.49665 0.0838-0.14178 0.96915-1.9599 1.9674-4.0403 1.0241-2.1346 1.8469-3.9002 1.8886-4.0532 0.0492-0.18265 0.0734-0.42743 0.0743-0.7506 0.001-0.33277-0.0212-0.56253-0.0725-0.7506-0.0404-0.14929-0.15137-0.43077-0.24645-0.6255-0.1401-0.28731-0.24435-0.42618-0.55127-0.73476-0.32484-0.32609-0.43534-0.4074-0.77355-0.57003-0.21725-0.10425-0.53-0.21893-0.69513-0.25563-0.16514-0.0363-0.46538-0.0646-0.66721-0.063zm-73.319 9.6562c-0.1718-0.0108-0.41575-0.005-0.5421 0.0121-0.12593 0.0175-0.34111 0.0646-0.47747 0.10425-0.13635 0.04-0.35194 0.12511-0.47955 0.18974-0.12718 0.0642-0.34777 0.20266-0.48955 0.30733-0.14178 0.10425-0.3582 0.31149-0.4808 0.45995-0.12219 0.14845-0.29065 0.40783-0.37405 0.57671-0.0838 0.16889-0.18515 0.42826-0.22601 0.57671-0.0513 0.18599-0.0746 0.42409-0.0755 0.7698-0.002 0.4095 0.0158 0.55712 0.0951 0.81315 0.0534 0.17181 0.16221 0.43785 0.24228 0.59048 0.0797 0.15262 0.21393 0.35904 0.29816 0.4587 0.0838 0.0997 1.4124 1.5696 2.9519 3.2668 1.5396 1.6972 2.8919 3.1555 3.0049 3.2401 0.11301 0.0851 0.34528 0.22059 0.51625 0.30149 0.17097 0.0805 0.43284 0.17848 0.58171 0.21767 0.17389 0.0455 0.42826 0.0705 0.7089 0.0701 0.31901-0.00082 0.52625-0.0254 0.76313-0.0913 0.17889-0.0496 0.43201-0.14428 0.56295-0.21016 0.13052-0.0663 0.35403-0.206 0.49581-0.31067 0.14178-0.10425 0.36153-0.31525 0.48747-0.46829 0.12635-0.15304 0.29523-0.412 0.3753-0.57504 0.0801-0.16346 0.17889-0.4195 0.21975-0.56837 0.0521-0.18974 0.0746-0.42159 0.0746-0.77145 0.00042-0.40616-0.0175-0.5592-0.0963-0.81315-0.053-0.17223-0.16179-0.43785-0.24186-0.59048-0.0797-0.15262-0.21392-0.35904-0.29815-0.4587-0.0842-0.0997-1.4124-1.5696-2.9519-3.2668-1.5392-1.6972-2.8906-3.1542-3.0024-3.2372-0.11217-0.0834-0.32025-0.21017-0.46245-0.28106-0.1422-0.0713-0.39573-0.16638-0.56295-0.211-0.16763-0.0446-0.44493-0.0901-0.61716-0.10134zm45.244 1.4962c-1.0433-0.008-2.2352 0.001-2.648 0.0204-0.41283 0.0196-1.0412 0.0559-1.397 0.0809-0.35528 0.0254-0.9558 0.0738-1.3344 0.10842-0.37822 0.0342-1.0725 0.10968-1.5429 0.16722-0.46996 0.058-1.1643 0.15221-1.5429 0.20976-0.37822 0.0575-1.1008 0.17973-1.6054 0.27147-0.50457 0.0917-1.3018 0.25145-1.7722 0.35528-0.46996 0.10383-1.2489 0.28898-1.7306 0.412-0.48164 0.12301-1.2347 0.32734-1.6738 0.45411-0.4391 0.12676-1.2085 0.36529-1.7097 0.52917-0.50123 0.16429-1.2585 0.42534-1.683 0.58005-0.42409 0.15471-1.1655 0.44076-1.6472 0.6355-0.48163 0.19474-1.251 0.52-1.7097 0.72224-0.4587 0.20267-1.4249 0.66345-2.1476 1.0241-0.72224 0.3607-1.6888 0.8661-2.1476 1.1226-0.4587 0.25688-1.1622 0.66428-1.5638 0.9057-0.40115 0.24144-1.2176 0.76102-1.814 1.1547-0.59631 0.39406-1.4312 0.9666-1.8556 1.2727-0.42409 0.30608-1.0922 0.80565-1.4846 1.1096-0.39198 0.30399-1.0487 0.83318-1.4595 1.1756-0.41033 0.34236-1.0184 0.86445-1.351 1.1601-0.33235 0.29607-0.92363 0.84067-1.3136 1.2101-0.3899 0.36988-0.99952 0.9708-1.3552 1.3357-0.35528 0.36487-0.8532 0.88822-1.1059 1.163-0.25311 0.2748-0.65802 0.72642-0.90074 1.0033-0.2427 0.27688-0.67429 0.78397-0.95956 1.1267-0.28522 0.34235-0.77272 0.95077-1.0834 1.3519-0.31025 0.40074-0.74935 0.98206-0.97537 1.2919-0.22561 0.30983-0.62801 0.88192-0.89408 1.2718-0.26563 0.38989-0.68222 1.0187-0.92573 1.397-0.24352 0.37822-0.61715 0.97867-0.8307 1.3344-0.2135 0.35528-0.59297 1.012-0.84277 1.4595-0.24978 0.44702-0.74935 1.4044-1.1101 2.1267-0.3607 0.72224-0.82147 1.6888-1.0241 2.1476-0.20225 0.4587-0.52751 1.228-0.72224 1.7097-0.19474 0.48164-0.48039 1.2226-0.63509 1.6472-0.15472 0.42409-0.40449 1.1468-0.55545 1.6054-0.15095 0.4587-0.37947 1.1906-0.5079 1.6263-0.12844 0.43577-0.34445 1.2239-0.47956 1.7514-0.13552 0.5275-0.33068 1.3436-0.43367 1.814-0.10342 0.46996-0.26272 1.2676-0.35446 1.7722-0.0917 0.50457-0.21433 1.2268-0.27188 1.6054-0.0575 0.37822-0.14261 0.98827-0.1889 1.3552-0.0459 0.36696-0.12093 1.0516-0.16638 1.522-0.0454 0.46996-0.10259 1.1455-0.12677 1.5012-0.0242 0.35528-0.0621 1.0684-0.0842 1.5846-0.0225 0.51583-0.0409 1.4261-0.0409 2.0224 0 0.59631 0.0183 1.5346 0.0413 2.085 0.0229 0.55044 0.0609 1.2727 0.0842 1.6054 0.0238 0.33235 0.0709 0.9141 0.1055 1.2927 0.0346 0.37822 0.11009 1.0725 0.16805 1.5429 0.058 0.46996 0.1618 1.2206 0.2306 1.668 0.0692 0.44702 0.20976 1.2539 0.31275 1.7931 0.103 0.53876 0.26188 1.3082 0.35279 1.7097 0.0913 0.40115 0.27688 1.1614 0.41283 1.6888 0.13595 0.5275 0.27147 1.0383 0.30107 1.1355l0.0542 0.17639 0.50082-0.32485c0.27564-0.17888 0.72266-0.46078 0.99368-0.62675 0.27105-0.16596 0.8244-0.4908 1.2297-0.72182 0.40532-0.23143 1.1968-0.65052 1.7585-0.93158 0.56212-0.28105 1.3406-0.65218 1.7306-0.82439 0.3899-0.17223 0.98123-0.42034 1.3136-0.55128 0.33277-0.13135 0.61633-0.24561 0.6305-0.25395 0.0146-0.008 0.00042-0.12385-0.0308-0.25604-0.0313-0.13219-0.13135-0.58797-0.22226-1.012-0.0905-0.42451-0.23102-1.1564-0.31192-1.6263-0.0809-0.47038-0.19391-1.2031-0.25103-1.6284-0.0571-0.42534-0.14136-1.1572-0.18682-1.6263-0.0459-0.46913-0.10675-1.1906-0.13595-1.6034-0.0313-0.4441-0.053-1.5341-0.0525-2.6688 0-1.1234 0.0221-2.2293 0.0534-2.6688 0.0288-0.41283 0.0801-1.0508 0.11384-1.4178 0.0334-0.36696 0.0997-0.97702 0.14678-1.3552 0.0471-0.37864 0.13219-0.98662 0.1889-1.351 0.0567-0.36488 0.15012-0.91823 0.20725-1.2302 0.0575-0.31192 0.17055-0.87698 0.25145-1.2552 0.0809-0.37864 0.23144-1.0258 0.33444-1.4386 0.103-0.41283 0.28189-1.0792 0.39698-1.4804 0.11551-0.40157 0.32275-1.0771 0.4612-1.5012 0.13803-0.42451 0.36863-1.0904 0.51208-1.4804 0.14387-0.38989 0.38281-1.0091 0.53168-1.3761 0.14887-0.36696 0.41616-0.99578 0.5938-1.397 0.17765-0.40157 0.55586-1.1951 0.84023-1.7639 0.28439-0.5692 0.69722-1.3573 0.9174-1.7514 0.22059-0.39449 0.57045-0.99871 0.77767-1.3427 0.20767-0.34403 0.59214-0.9537 0.85485-1.3548 0.26271-0.40074 0.6572-0.98243 0.87653-1.2927 0.21934-0.30983 0.56795-0.78855 0.77437-1.0638 0.20684-0.27522 0.63301-0.81982 0.94703-1.2106 0.31441-0.39031 0.80107-0.972 1.0813-1.2927 0.28023-0.32026 0.8565-0.95326 1.281-1.4061 0.42451-0.45327 1.1588-1.1876 1.6322-1.6325 0.4733-0.44453 1.123-1.0383 1.444-1.3194 0.32109-0.28064 0.912-0.77393 1.3127-1.0959 0.40115-0.32192 0.9837-0.77565 1.2952-1.0079 0.3115-0.23268 0.84653-0.61841 1.1893-0.85695 0.34277-0.23894 0.93285-0.63342 1.3111-0.87697 0.37864-0.24311 0.93203-0.58922 1.2302-0.76853 0.29816-0.17931 0.87525-0.51082 1.2823-0.73642 0.40699-0.22601 1.1484-0.61508 1.6472-0.86483 0.49873-0.24978 1.198-0.58588 1.5533-0.74685 0.35571-0.16054 0.94658-0.41742 1.3136-0.57045 0.36696-0.15304 1.0612-0.42451 1.5429-0.60382 0.48164-0.17889 1.1668-0.42034 1.522-0.53627 0.3557-0.11592 1.0029-0.31608 1.4386-0.44452 0.43577-0.12885 1.1301-0.319 1.5429-0.42242 0.41283-0.10383 1.0884-0.26146 1.5012-0.34986 0.41283-0.0888 1.0604-0.21768 1.4386-0.28607 0.37864-0.0688 0.94155-0.16388 1.251-0.21142 0.30983-0.0471 0.86318-0.12259 1.2302-0.16805 0.36696-0.045 0.86445-0.10133 1.105-0.12552 0.24103-0.0238 0.8319-0.0713 1.3136-0.10591 0.48164-0.035 1.5137-0.0746 2.2935-0.0888 0.8553-0.0154 1.8482-0.007 2.502 0.0225 0.59631 0.0267 1.5216 0.0855 2.0558 0.13135 0.53459 0.0455 1.2664 0.1201 1.6263 0.16555 0.36028 0.0455 0.90825 0.12177 1.2176 0.16889 0.30983 0.0471 0.87278 0.14178 1.251 0.21016 0.37864 0.0684 0.99788 0.19057 1.3761 0.27147s1.0258 0.23144 1.4386 0.33443c0.41283 0.103 1.0792 0.28148 1.4804 0.39615 0.40157 0.11468 1.1989 0.36488 1.7722 0.55587 0.57338 0.19098 1.3894 0.48121 1.814 0.64468 0.42451 0.16346 1.1751 0.46996 1.668 0.68138 0.4929 0.211 1.4312 0.64843 2.085 0.972 0.65386 0.32359 1.4512 0.73475 1.7722 0.9141 0.32109 0.17889 0.9591 0.5496 1.4178 0.8244 0.4587 0.27438 1.2376 0.76687 1.7306 1.0946 0.49289 0.32735 1.2344 0.84398 1.6472 1.1472 0.41283 0.30358 1.1072 0.83775 1.5429 1.1868 0.43577 0.34945 1.055 0.86483 1.3761 1.1459 0.32109 0.28064 0.9312 0.8361 1.3552 1.2344 0.42451 0.39823 1.1593 1.133 1.633 1.6325 0.47329 0.49998 1.0246 1.0963 1.2251 1.3256 0.20016 0.22935 0.56003 0.65135 0.79943 0.93825 0.23935 0.28647 0.66969 0.82312 0.95662 1.1922 0.28648 0.36862 0.7285 0.95992 0.98205 1.3136 0.25312 0.35319 0.69056 0.98955 0.97118 1.414 0.28064 0.42451 0.73559 1.1468 1.0108 1.6054 0.27522 0.4587 0.66511 1.1342 0.86655 1.5012 0.2014 0.36696 0.5938 1.1267 0.87195 1.6888 0.27813 0.56169 0.63467 1.3123 0.79147 1.668 0.15721 0.35528 0.42159 0.98415 0.58755 1.397 0.16556 0.41283 0.4341 1.1171 0.5959 1.565 0.1618 0.44786 0.40073 1.1518 0.53084 1.5638 0.13052 0.412 0.35612 1.1839 0.50165 1.7151 0.14511 0.53126 0.35821 1.3849 0.47329 1.8974 0.1151 0.51249 0.27439 1.2881 0.35445 1.7239 0.0797 0.43576 0.19224 1.1113 0.24979 1.5012 0.058 0.38989 0.14303 1.0467 0.18932 1.4595 0.0467 0.41283 0.10341 0.96615 0.12677 1.2302 0.0233 0.26354 0.0609 0.77977 0.0834 1.1468 0.0225 0.36696 0.0538 1.1018 0.0692 1.6325l0.0283 0.96533 0.7548 0.24978c0.41534 0.13719 1.0875 0.3728 1.4942 0.52375 0.40658 0.15095 1.042 0.39782 1.4124 0.54878 0.36988 0.15095 1.0129 0.42575 1.4287 0.61131 0.41616 0.18516 1.2068 0.55837 1.7572 0.82898 0.55044 0.27105 1.2214 0.60924 1.4912 0.75187 0.2698 0.14304 0.49748 0.25187 0.50582 0.2427 0.009-0.009 0.0375-0.40158 0.0642-0.8715 0.0271-0.47038 0.0596-1.4649 0.073-2.2101 0.0137-0.77603 0.003-1.8544-0.0238-2.5228-0.0267-0.64218-0.0671-1.4303-0.0901-1.7514-0.0233-0.32109-0.0701-0.89363-0.10425-1.2718-0.0342-0.37864-0.11926-1.148-0.18931-1.7097-0.0697-0.56212-0.201-1.4704-0.2919-2.0192-0.0909-0.54836-0.24062-1.374-0.33319-1.8348-0.0926-0.46037-0.25229-1.1938-0.35445-1.6296-0.10217-0.43577-0.28106-1.1488-0.3974-1.5846-0.11634-0.43577-0.3311-1.1864-0.47663-1.668-0.14595-0.48164-0.38614-1.2322-0.53418-1.668-0.14803-0.43577-0.38113-1.0925-0.51791-1.4595-0.1372-0.36696-0.3899-1.0145-0.5617-1.4386-0.17181-0.42451-0.47788-1.1468-0.68013-1.6054-0.20266-0.4587-0.66345-1.4253-1.0241-2.1476-0.36071-0.72225-0.8661-1.6888-1.1226-2.1476-0.25687-0.4587-0.66387-1.1626-0.90533-1.5638-0.24103-0.40158-0.80025-1.274-1.2418-1.939-0.44161-0.66512-1.0162-1.5008-1.2769-1.8573-0.26063-0.35612-0.68264-0.92033-0.93825-1.2535-0.25521-0.33318-0.72642-0.92362-1.0467-1.3119-0.32026-0.38864-0.8127-0.96907-1.0938-1.2902-0.28148-0.32109-0.83565-0.93075-1.231-1.3552-0.39574-0.42451-1.0742-1.1184-1.5074-1.5429-0.43327-0.42451-1.1251-1.0792-1.5375-1.4549-0.41283-0.37613-1.1347-1.005-1.605-1.3978-0.46996-0.39282-1.1455-0.94118-1.5012-1.2184-0.35529-0.27731-0.92783-0.70932-1.2718-0.96075-0.34403-0.25104-0.9537-0.68222-1.3552-0.95783-0.40116-0.27605-1.07-0.7189-1.4862-0.98497-0.41576-0.26563-1.1197-0.69723-1.5638-0.9591-0.44411-0.26146-1.1355-0.65511-1.537-0.87405-0.40116-0.21935-1.1801-0.62384-1.7306-0.89903-0.55044-0.27522-1.3106-0.64135-1.6888-0.8136-0.37822-0.17222-0.89445-0.40115-1.1468-0.50916-0.25229-0.108-0.7869-0.32776-1.1884-0.48872-0.40116-0.16097-1.0487-0.41033-1.4386-0.55378-0.3899-0.14386-1.1738-0.41325-1.7418-0.59923-0.56838-0.18598-1.3565-0.43117-1.7514-0.5446-0.39532-0.11384-1.1222-0.31025-1.615-0.43702-0.4929-0.12635-1.2344-0.30483-1.6476-0.39615-0.41325-0.0913-1.2014-0.25062-1.7514-0.35362-0.55002-0.10299-1.46-0.25353-2.022-0.33443-0.5617-0.0813-1.3594-0.18514-1.7722-0.23101-0.41283-0.0459-1.0884-0.11176-1.5012-0.14595-0.41283-0.0346-1.0696-0.083-1.4595-0.108s-1.5625-0.0517-2.6062-0.06zm56.983 14.507c-0.29816-0.0104-0.54835 0.005-0.71432 0.0425-0.14095 0.0321-0.36613 0.10342-0.5004 0.15846-0.1347 0.055-1.8302 1.0062-3.7684 2.1134-1.9378 1.1075-3.6388 2.0875-3.7792 2.178-0.14053 0.0901-0.36613 0.28064-0.50166 0.42326-0.13552 0.1422-0.3069 0.35487-0.38071 0.47163-0.0743 0.11718-0.18307 0.33193-0.24186 0.47704-0.0593 0.14512-0.13428 0.40283-0.16639 0.57255-0.0326 0.17013-0.0592 0.41825-0.0592 0.55169s0.0267 0.38155 0.0592 0.55169c0.0321 0.16972 0.10759 0.42826 0.1668 0.57463 0.0596 0.14637 0.18515 0.38364 0.27898 0.52792 0.0938 0.14387 0.29648 0.37947 0.44994 0.52334 0.15387 0.14428 0.40032 0.33276 0.54836 0.4195 0.14803 0.0863 0.41908 0.20684 0.60256 0.2673 0.29232 0.0967 0.40366 0.11051 0.89655 0.11259l0.56295 0.002 0.35696-0.12385c0.26479-0.0917 1.3219-0.67387 4.0858-2.2505l3.728-2.1267 0.35987-0.35445c0.23186-0.2281 0.41617-0.45578 0.5175-0.63926 0.0867-0.1568 0.206-0.42909 0.2648-0.60465 0.0934-0.28023 0.10674-0.3899 0.10674-0.88283 0-0.49289-0.0133-0.60256-0.10674-0.88282-0.0588-0.17556-0.17806-0.44786-0.26522-0.60465-0.0959-0.17264-0.29107-0.41742-0.4954-0.62217-0.20474-0.20433-0.44952-0.39948-0.62216-0.49539-0.15679-0.0872-0.42909-0.20475-0.60465-0.26146-0.23769-0.0767-0.43743-0.10717-0.7785-0.11885zm-123.02 16.055c-0.28356-0.0121-0.50957 0.003-0.7064 0.0471-0.15929 0.0359-0.39531 0.108-0.52458 0.16055-0.12927 0.0525-0.34361 0.16471-0.47538 0.24937-0.13219 0.0847-0.33486 0.24185-0.45036 0.34985-0.11551 0.10759-0.29399 0.31401-0.39699 0.45787-0.10258 0.14429-0.23977 0.38823-0.30441 0.5421-0.0642 0.15429-0.14928 0.4391-0.18848 0.63301-0.0509 0.25271-0.0642 0.45453-0.0467 0.7089 0.0133 0.19599 0.0534 0.4687 0.0892 0.60631 0.0355 0.13761 0.14345 0.4095 0.2402 0.60465 0.14053 0.28357 0.25145 0.43035 0.55252 0.73309 0.30525 0.30733 0.44411 0.412 0.7335 0.55545 0.27314 0.1351 0.57588 0.2306 1.2927 0.40657 0.51458 0.12635 2.3902 0.58546 4.1675 1.02 2.0091 0.49123 3.3531 0.7998 3.5528 0.81562 0.18849 0.015 0.45579 0.004 0.64635-0.0258 0.17889-0.0288 0.46621-0.10633 0.63801-0.17222 0.17223-0.0663 0.41617-0.18848 0.5421-0.2723 0.12636-0.0834 0.33819-0.25729 0.47079-0.38615 0.13261-0.12927 0.31567-0.34861 0.40616-0.48747 0.0905-0.13886 0.21016-0.36404 0.26563-0.5004 0.0555-0.13677 0.13052-0.39281 0.16722-0.5692 0.0363-0.17681 0.0663-0.43326 0.0663-0.56963 0-0.13635-0.0267-0.38697-0.0592-0.55711-0.0321-0.16972-0.10758-0.42826-0.1668-0.57463-0.0596-0.14637-0.18556-0.38489-0.28022-0.53001-0.0947-0.14553-0.309-0.39198-0.47621-0.54793-0.19891-0.18599-0.42451-0.34486-0.65135-0.45912-0.20684-0.10426-0.54044-0.2231-0.8265-0.29441-0.26355-0.0659-1.7272-0.42409-3.2526-0.79605-1.525-0.37196-3.1858-0.77857-3.6904-0.90367-0.71141-0.17598-1.0108-0.23102-1.3344-0.24437zm97.515 28.221c-0.30983 0.005-0.73183 0.0129-0.93825 0.0188-0.20642 0.006-0.73184 0.0309-1.1676 0.0554-0.43577 0.0242-1.0925 0.0725-1.4595 0.10717-0.36696 0.0346-0.89235 0.0909-1.1676 0.1251-0.27522 0.0342-0.75353 0.0997-1.0634 0.14554-0.30983 0.0459-0.87278 0.14011-1.251 0.20891-0.37822 0.0692-0.99788 0.19182-1.3761 0.27188-0.37822 0.0805-1.0829 0.24812-1.5658 0.37197-0.48247 0.12426-1.2518 0.33777-1.7097 0.47538-0.45745 0.13719-1.1038 0.34236-1.4366 0.4562-0.33235 0.11384-0.85778 0.30024-1.1676 0.41408-0.30983 0.11426-0.9099 0.34778-1.3344 0.51958-0.42451 0.17181-1.1468 0.47788-1.6054 0.68055-0.4587 0.20224-1.3594 0.633-2.0016 0.95662-0.64218 0.3236-1.5146 0.78233-1.939 1.0192-0.42451 0.23686-1.1468 0.65636-1.6054 0.9324-0.4587 0.27605-1.181 0.72766-1.6054 1.0041-0.42409 0.27647-1.1092 0.736-1.522 1.0212-0.41283 0.28523-1.15 0.81607-1.6384 1.1797-0.48831 0.36363-1.1638 0.88028-1.5012 1.148-0.33735 0.26813-0.89489 0.72225-1.2389 1.0091-0.34403 0.28732-0.84105 0.71016-1.105 0.9399-0.26354 0.22935-0.68596 0.60423-0.93825 0.83235-0.25229 0.22852-0.90653 0.83903-1.4545 1.3565-0.54752 0.51791-1.4107 1.3736-1.9182 1.9019-0.50707 0.52834-1.196 1.2602-1.53 1.6263-0.33402 0.36613-0.86197 0.9591-1.173 1.3178l-0.56586 0.65136-0.45287-0.38156c-0.24937-0.20975-0.73475-0.60799-1.0788-0.88485-0.34402-0.27647-0.89737-0.70932-1.2302-0.9612-0.33235-0.25228-0.89572-0.66595-1.2514-0.9195-0.35611-0.25354-1.0596-0.73225-1.5638-1.0634-0.50457-0.33151-1.2673-0.8115-1.6955-1.0666-0.42785-0.2552-1.1318-0.65552-1.5638-0.88987-0.43202-0.23436-1.123-0.58923-1.5358-0.78855-0.41283-0.19933-0.99457-0.47038-1.2922-0.60215-0.29815-0.13135-0.86107-0.36655-1.251-0.5225-0.39031-0.15554-0.99997-0.38656-1.3557-0.5125-0.3557-0.12634-0.96532-0.3265-1.3552-0.44494-0.38989-0.11842-1.0654-0.3069-1.5012-0.41825-0.43576-0.11134-1.1676-0.27814-1.6263-0.37071-0.4587-0.0922-1.153-0.21433-1.5429-0.27147-0.38989-0.0571-0.98122-0.13302-1.3136-0.16804-0.33235-0.0355-0.89527-0.0842-1.251-0.10884-0.3557-0.0242-1.228-0.0442-1.939-0.0442-0.71098 0-1.5929 0.0205-1.9599 0.0454-0.36696 0.0254-1.005 0.083-1.4178 0.12885-0.41283 0.0455-1.0412 0.12927-1.397 0.1864-0.35528 0.0571-0.93697 0.16138-1.2927 0.23143-0.35528 0.0705-0.98415 0.21184-1.397 0.31443-0.41283 0.10257-1.0366 0.27063-1.3865 0.37321-0.34945 0.10258-0.99705 0.31025-1.4386 0.46204-0.4416 0.15136-1.1872 0.42951-1.6576 0.61799-0.46996 0.18848-1.0988 0.45203-1.397 0.58589-0.29815 0.13344-0.99247 0.47079-1.5429 0.74976-0.55044 0.27855-1.2852 0.66845-1.633 0.86655-0.34778 0.19767-0.90158 0.52334-1.2302 0.72309-0.32901 0.20016-0.86985 0.54126-1.2022 0.75765-0.33235 0.21684-0.88567 0.59214-1.2302 0.834-0.34402 0.24186-0.9099 0.65135-1.2568 0.91035-0.34694 0.25854-0.957 0.73141-1.3552 1.0504-0.39823 0.31942-1.015 0.8298-1.3707 1.1347-0.35528 0.30482-0.94657 0.82733-1.3136 1.1609-0.36696 0.3336-1.1805 1.1138-1.8077 1.7343-0.62717 0.62007-1.4641 1.4745-1.8602 1.899-0.39615 0.42408-0.96157 1.045-1.2572 1.3794-0.29565 0.33401-0.78353 0.897-1.0842 1.251-0.30024 0.35361-0.89235 1.075-1.3148 1.603-0.42283 0.52793-1.1259 1.4382-1.5629 2.0224-0.4366 0.58422-0.95288 1.2877-1.1476 1.5629-0.19474 0.27522-0.59839 0.85695-0.897 1.2927-0.29857 0.43576-0.75352 1.1176-1.0112 1.515-0.25771 0.3974-0.65219 1.0166-0.87653 1.3761-0.22435 0.35945-0.62884 1.0283-0.89902 1.4866-0.27063 0.4587-0.67805 1.1756-0.90615 1.5929-0.22769 0.41783-0.47872 0.94035-0.55753 1.1606-0.0788 0.22059-0.17348 0.58296-0.20975 0.8052-0.0475 0.28856-0.06 0.54585-0.0434 0.90405 0.0138 0.29732 0.058 0.6355 0.10925 0.834 0.0475 0.18348 0.12344 0.43242 0.16889 0.55335 0.045 0.12093 0.13135 0.31818 0.1914 0.43785 0.06 0.1201 0.18514 0.33069 0.27772 0.4683 0.0926 0.13761 0.26396 0.36153 0.38072 0.49748 0.11718 0.13594 0.34903 0.35611 0.51583 0.48872s0.41951 0.309 0.56129 0.3924c0.1422 0.083 0.40908 0.21308 0.59339 0.28856 0.18431 0.0755 0.45745 0.1668 0.60631 0.2035 0.14887 0.0363 0.44703 0.0859 0.6622 0.11009 0.26939 0.03 0.52 0.0305 0.8052 0.002 0.2281-0.0233 0.56212-0.0805 0.74268-0.12636 0.18014-0.0459 0.47913-0.14761 0.66428-0.2256 0.18474-0.078 0.5004-0.25061 0.7014-0.38364 0.20058-0.13302 0.51499-0.39281 0.69847-0.57754 0.18348-0.18431 0.41909-0.46704 0.52376-0.62717 0.10467-0.16054 0.35653-0.59214 0.55961-0.9591s0.58797-1.0334 0.85567-1.4804c0.26772-0.44744 0.68972-1.1321 0.9378-1.522 0.24812-0.38989 0.7089-1.0938 1.0238-1.5638 0.31484-0.47037 0.83355-1.221 1.153-1.668 0.319-0.44744 0.77475-1.0759 1.0129-1.397 0.23811-0.32109 0.66804-0.88402 0.9558-1.251 0.28731-0.36696 0.76605-0.9645 1.0634-1.3274 0.29733-0.3632 0.81105-0.97327 1.1422-1.3552 0.33068-0.38238 0.8853-1.005 1.2318-1.3832 0.34653-0.37863 1.1088-1.1668 1.6947-1.7518 0.58546-0.58504 1.412-1.3756 1.8361-1.7564 0.42409-0.38114 0.97373-0.86318 1.2206-1.0717 0.24729-0.20891 0.71641-0.59214 1.0425-0.85192 0.32652-0.25979 0.8094-0.63342 1.073-0.83025 0.26397-0.19641 0.80813-0.58297 1.2093-0.85905 0.40158-0.27564 1.0487-0.69806 1.4386-0.9378 0.3899-0.24019 0.99038-0.59255 1.3344-0.78353 0.34403-0.19056 1.0196-0.53835 1.5012-0.77227 0.48164-0.23435 1.1008-0.51917 1.3761-0.63384 0.27522-0.11426 0.72558-0.29273 1.0008-0.39657 0.27522-0.10383 0.82275-0.29231 1.2168-0.41909 0.39407-0.12635 1.06-0.31566 1.4804-0.41991 0.42034-0.10467 1.0204-0.23686 1.3336-0.29399 0.31317-0.0571 0.84817-0.14095 1.1884-0.18598 0.34027-0.045 0.92572-0.10425 1.301-0.13177 0.43285-0.0317 1.1192-0.0412 1.8765-0.0263 0.65678 0.0129 1.382 0.0438 1.6113 0.0688 0.22935 0.0251 0.68931 0.0842 1.0216 0.13136 0.33235 0.0471 0.92363 0.15054 1.3136 0.23018 0.3899 0.0792 0.9249 0.20058 1.1884 0.2698 0.26397 0.0688 0.73309 0.20183 1.0425 0.29566 0.30984 0.0934 0.87278 0.2823 1.251 0.41949 0.37864 0.1372 1.0166 0.38949 1.4178 0.56087 0.40158 0.17097 1.105 0.49623 1.5638 0.72266 0.4587 0.22643 1.1964 0.61967 1.6392 0.8736 0.44286 0.25354 1.1184 0.66011 1.5012 0.9024 0.38281 0.24269 0.96705 0.63092 1.2986 0.86235 0.33152 0.23144 0.86655 0.61716 1.1884 0.85733 0.32235 0.23977 0.89573 0.68388 1.274 0.987 0.37864 0.30274 0.96705 0.79065 1.3077 1.0842 0.34111 0.29315 0.94155 0.82522 1.3344 1.1822 0.39324 0.35737 1.8419 1.771 3.2192 3.1417l2.5045 2.4924 1.5533-2.2922c0.8544-1.261 1.7426-2.5512 1.9741-2.8669 0.23102-0.31568 0.63676-0.84608 0.90113-1.1785 0.26479-0.33277 0.7677-0.94492 1.1176-1.3606 0.35028-0.41575 0.98872-1.1476 1.4186-1.6263 0.42993-0.47872 1.4303-1.5188 2.223-2.311 0.7923-0.7923 1.7402-1.7092 2.1058-2.0374 0.36571-0.32859 0.91905-0.81607 1.2302-1.0834 0.31067-0.26772 0.77145-0.65553 1.0238-0.86235 0.25229-0.20642 0.63718-0.51667 0.85485-0.68889 0.21809-0.17222 0.65886-0.51124 0.97995-0.75352 0.32109-0.24227 0.7998-0.59547 1.0634-0.78518 0.26354-0.19015 0.92033-0.63885 1.4595-0.9975 0.53918-0.35862 1.3269-0.8607 1.7514-1.115 0.42451-0.25479 1.0813-0.63551 1.4595-0.84608 0.37822-0.21058 1.1384-0.60549 1.6888-0.87697 0.55044-0.27188 1.2635-0.61007 1.5846-0.75188 0.32109-0.14178 0.90278-0.38572 1.2927-0.5421 0.3899-0.15595 0.99998-0.38697 1.3552-0.51291 0.3557-0.12593 0.91868-0.314 1.251-0.41825 0.33277-0.10383 0.73601-0.22643 0.89655-0.27271 0.16055-0.0459 0.47038-0.13053 0.68805-0.18765 0.21809-0.0572 0.64927-0.16222 0.9591-0.23352 0.30983-0.0717 0.7977-0.17556 1.0842-0.23103 0.2869-0.055 0.74643-0.13761 1.0216-0.18264 0.27522-0.045 0.72558-0.11134 1.0008-0.1472 0.27522-0.0355 0.79148-0.093 1.1468-0.1276 0.3557-0.0346 1.1226-0.0822 1.7047-0.10551 0.72849-0.0292 1.4028-0.0292 2.1638 0.00075 0.60799 0.0241 1.4828 0.0813 1.9441 0.12719 0.4612 0.0463 1.1576 0.13135 1.5475 0.18889 0.3899 0.058 1.0842 0.17973 1.5429 0.27064 0.4587 0.0909 1.2656 0.27605 1.7931 0.41116 0.52751 0.13552 1.2969 0.35236 1.7097 0.48247 0.41283 0.13011 1.0417 0.33986 1.397 0.4662 0.3557 0.12594 1.0129 0.37656 1.4608 0.55712 0.44827 0.18014 1.1705 0.48914 1.6054 0.68638 0.43493 0.19766 1.2414 0.59006 1.7918 0.8724 0.55044 0.28189 1.3306 0.7014 1.7338 0.93158 0.40324 0.22977 0.97785 0.56879 1.2772 0.7527 0.29899 0.1839 0.83355 0.52084 1.1876 0.74851 0.35403 0.22769 0.99 0.65469 1.4124 0.9483 0.42283 0.29357 1.0938 0.7752 1.4903 1.0704 0.39698 0.29482 1.0254 0.7752 1.397 1.0671 0.37155 0.29149 0.9666 0.7731 1.3219 1.0692 0.3557 0.29649 0.93742 0.79313 1.2927 1.1038 0.3557 0.31066 0.9549 0.8469 1.3323 1.1918 0.37696 0.34486 1.1722 1.0963 1.7668 1.6696 0.59464 0.57337 1.1868 1.1222 1.3156 1.2197 0.12927 0.0976 0.40365 0.26105 0.61007 0.36279 0.20641 0.10175 0.49748 0.22435 0.64635 0.27231 0.14929 0.0479 0.43993 0.11676 0.64635 0.15303 0.2723 0.0479 0.52417 0.0596 0.9174 0.0438 0.38406-0.0158 0.65761-0.0521 0.93825-0.12552 0.21809-0.0567 0.5446-0.17138 0.72641-0.25437 0.1814-0.0834 0.48455-0.25395 0.67304-0.37947 0.20558-0.13677 0.49873-0.39281 0.73308-0.63967 0.23228-0.2452 0.47414-0.55295 0.59799-0.76148 0.11384-0.19223 0.26896-0.51332 0.34402-0.71307 0.0755-0.20016 0.16847-0.5004 0.20767-0.6672 0.0513-0.22142 0.0696-0.48538 0.0684-0.97117-0.002-0.58172-0.0163-0.71933-0.11051-1.075-0.0596-0.22393-0.19348-0.58714-0.29732-0.80693-0.10425-0.21933-0.27772-0.52374-0.38614-0.67637-0.108-0.15262-0.40407-0.49039-0.65719-0.75105-0.25354-0.26062-0.91118-0.89985-1.4616-1.4207-0.55044-0.52083-1.2164-1.1426-1.4804-1.382-0.26354-0.23937-0.63884-0.57672-0.834-0.74977-0.19474-0.17306-0.61716-0.54002-0.93825-0.81563-0.32109-0.27563-0.90278-0.76312-1.2927-1.0826-0.3899-0.31983-0.99953-0.80857-1.3552-1.0858-0.35528-0.2773-1.0233-0.78397-1.4836-1.1254-0.46079-0.34194-1.188-0.86527-1.6167-1.1634-0.42868-0.29815-1.1776-0.80025-1.6647-1.1163-0.48706-0.31566-1.2418-0.78727-1.6776-1.0479-0.43577-0.26062-1.0738-0.63342-1.4178-0.82777-0.34403-0.19474-0.9537-0.52876-1.3552-0.74268-0.40115-0.2135-1.0738-0.55461-1.4942-0.75765-0.42034-0.20308-1.0583-0.50123-1.4178-0.66261-0.35945-0.16138-0.97245-0.42534-1.3623-0.58631-0.3899-0.16137-1.0487-0.42158-1.4641-0.57879-0.41532-0.15721-1.1259-0.4095-1.5784-0.56045-0.45286-0.15095-1.2385-0.39448-1.7468-0.54085-0.5079-0.14637-1.271-0.35111-1.6955-0.45536-0.4245-0.10467-1.1968-0.27522-1.7156-0.37906-0.51875-0.10425-1.3065-0.24519-1.7506-0.31316-0.44451-0.0676-1.1171-0.16054-1.4958-0.206-0.37821-0.0459-1.035-0.11217-1.4595-0.14762-0.42408-0.035-1.2406-0.0826-1.814-0.10508-0.57337-0.0225-1.2956-0.0375-1.6054-0.0329z"/>
 </g>

</svg>